<?xml version="1.0" encoding="UTF-8" standalone="no"?>
<!-- Created with Inkscape (http://www.inkscape.org/) -->

<svg
   width="34mm"
   height="34mm"
   viewBox="0 0 34 34"
   version="1.1"
   id="svg5"
   xmlns="http://www.w3.org/2000/svg"
   xmlns:svg="http://www.w3.org/2000/svg">
  <defs
     id="defs2" />
  <g
     id="layer1">
    <circle
       style="fill:#00b0f0;fill-opacity:1;stroke:none;stroke-width:0.264583"
       id="path846"
       cx="17"
       cy="17"
       r="17" />
    <g
       aria-label="DO"
       id="text3460"
       style="font-weight:bold;font-size:21.1667px;line-height:1.25;font-family:Roboto;-inkscape-font-specification:'Roboto, Bold';fill:#ffffff;stroke-width:0.264583">
      <path
         d="M 3.9409999,24.523907 V 9.4757057 h 4.6302157 q 1.9843784,0 3.5450084,0.8991713 1.570967,0.888836 2.449467,2.542485 0.878501,1.643313 0.878501,3.741379 v 0.692465 q 0,2.098067 -0.868165,3.731045 -0.857831,1.632978 -2.428797,2.532149 -1.570966,0.899171 -3.5450085,0.909507 z M 7.0415908,11.987184 v 10.045915 h 1.4986189 q 1.8190133,0 2.7801963,-1.18856 0.961183,-1.18856 0.981854,-3.400315 v -0.795818 q 0,-2.294437 -0.950848,-3.472662 -0.950848,-1.18856 -2.7801964,-1.18856 z"
         style="text-align:center;text-anchor:middle"
         id="path1302" />
      <path
         d="m 30.058311,17.340871 q 0,2.22209 -0.785483,3.896409 -0.785483,1.674319 -2.253096,2.583826 -1.457278,0.909507 -3.348639,0.909507 -1.870689,0 -3.338302,-0.899172 -1.467613,-0.899171 -2.273767,-2.563155 -0.806154,-1.674319 -0.816489,-3.844732 v -0.744142 q 0,-2.22209 0.795818,-3.906745 0.806154,-1.694989 2.263432,-2.594161 1.467613,-0.9095064 3.348638,-0.9095064 1.881025,0 3.338303,0.9095064 1.467613,0.899172 2.263431,2.594161 0.806154,1.684655 0.806154,3.896409 z m -3.141932,-0.68213 q 0,-2.366784 -0.847495,-3.596685 -0.847495,-1.229901 -2.418461,-1.229901 -1.560631,0 -2.408126,1.219565 -0.847495,1.209231 -0.85783,3.555345 v 0.733806 q 0,2.304773 0.847495,3.576015 0.847495,1.271242 2.439131,1.271242 1.560631,0 2.397791,-1.219565 0.837159,-1.229902 0.847495,-3.576015 z"
         style="text-align:center;text-anchor:middle"
         id="path1304" />
    </g>
  </g>
</svg>
