<?xml version="1.0" encoding="UTF-8" standalone="no"?>
<!-- Created with Inkscape (http://www.inkscape.org/) -->

<svg
   width="34mm"
   height="34mm"
   viewBox="0 0 34 34"
   version="1.1"
   id="svg5"
   xmlns="http://www.w3.org/2000/svg"
   xmlns:svg="http://www.w3.org/2000/svg">
  <defs
     id="defs2" />
  <g
     id="layer1">
    <circle
       style="fill:#00b0f0;fill-opacity:1;stroke:none;stroke-width:0.264583"
       id="path846"
       cx="17"
       cy="17"
       r="17" />
    <g
       aria-label="DO"
       id="text3460"
       style="font-weight:900;font-size:17.6389px;line-height:1.25;font-family:Roboto;-inkscape-font-specification:'Roboto, Heavy';fill:#ffffff;stroke-width:0.264583">
      <path
         d="M 5.9889922,23.270411 V 10.730255 h 4.0393768 q 1.66226,0 2.988623,0.757921 1.326362,0.749309 2.067058,2.127348 0.749309,1.369426 0.757922,3.07475 v 0.577054 q 0,1.722549 -0.732083,3.091975 -0.723471,1.360814 -2.049834,2.135961 -1.317749,0.766534 -2.945558,0.775147 z M 9.0120655,13.064308 V 20.94497 H 10.06282 q 1.300525,0 1.998157,-0.921564 0.697632,-0.930177 0.697632,-2.756078 v -0.542603 q 0,-1.817289 -0.697632,-2.738853 -0.697632,-0.921564 -2.032608,-0.921564 z"
         style="text-align:center;text-anchor:middle"
         id="path867" />
      <path
         d="m 28.01178,17.258715 q 0,1.834514 -0.680407,3.247005 -0.680407,1.41249 -1.937868,2.179024 -1.248848,0.757921 -2.850818,0.757921 -1.601971,0 -2.842206,-0.732083 -1.240235,-0.740696 -1.937867,-2.110122 -0.68902,-1.369427 -0.723471,-3.143652 v -0.706245 q 0,-1.843127 0.671794,-3.247005 0.680407,-1.41249 1.937868,-2.179024 1.266073,-0.766534 2.876656,-0.766534 1.593358,0 2.842206,0.757921 1.248848,0.757922 1.937868,2.161799 0.697632,1.395265 0.706245,3.203941 z m -3.07475,-0.525378 q 0,-1.868965 -0.62873,-2.833592 -0.620118,-0.973241 -1.782839,-0.973241 -2.273764,0 -2.402955,3.410647 l -0.0086,0.921564 q 0,1.843127 0.611505,2.833593 0.611505,0.990465 1.817289,0.990465 1.145495,0 1.765613,-0.97324 0.620117,-0.97324 0.62873,-2.799142 z"
         style="text-align:center;text-anchor:middle"
         id="path869" />
    </g>
  </g>
</svg>
