<?xml version="1.0" encoding="UTF-8" standalone="no"?>
<!-- Created with Inkscape (http://www.inkscape.org/) -->

<svg
   width="34mm"
   height="34mm"
   viewBox="0 0 34 34"
   version="1.1"
   id="svg5"
   xmlns="http://www.w3.org/2000/svg"
   xmlns:svg="http://www.w3.org/2000/svg">
  <defs
     id="defs2" />
  <g
     id="layer1">
    <circle
       style="fill:#00b0f0;fill-opacity:1;stroke:none;stroke-width:0.264583"
       id="path846"
       cx="17"
       cy="17"
       r="17" />
    <g
       aria-label="E. coli"
       id="text3460"
       style="font-style:italic;font-size:10.5833px;line-height:1.25;font-family:Roboto;-inkscape-font-specification:'Roboto, Italic';fill:#ffffff;stroke-width:0.264583">
      <path
         d="M 8.088714,17.438662 H 4.9261264 L 4.46104,20.105158 H 8.1403902 L 7.9956967,20.916475 H 3.3500002 L 4.6574098,13.392411 H 9.25143 L 9.1067364,14.208896 H 5.4842301 l -0.4185778,2.418449 h 3.1625876 z"
         id="path1518" />
      <path
         d="m 9.7785277,19.831274 q 0.2532133,-0.0052 0.4185783,0.155028 0.165364,0.160197 0.160196,0.413411 -0.0052,0.253213 -0.170532,0.41341 -0.165364,0.155029 -0.4134099,0.165364 -0.2480461,0.01033 -0.4082425,-0.139526 -0.1601964,-0.155029 -0.1601964,-0.408243 0,-0.253213 0.1601964,-0.418577 0.1601964,-0.170532 0.4134101,-0.180867 z"
         id="path1520" />
      <path
         d="m 16.801333,20.244684 q 0.50126,0.01034 0.904335,-0.289387 0.403074,-0.30489 0.527097,-0.795815 l 0.883665,-0.0052 q -0.07752,0.527097 -0.423746,0.961178 -0.341063,0.434081 -0.862993,0.676959 -0.521931,0.242879 -1.069699,0.227376 -0.69763,-0.01034 -1.183387,-0.361734 -0.480589,-0.356566 -0.707965,-0.987017 -0.227375,-0.635618 -0.155028,-1.426265 l 0.02584,-0.258381 q 0.09819,-0.80615 0.470254,-1.441768 0.372069,-0.635618 0.971514,-0.987017 0.599444,-0.356566 1.322912,-0.335895 0.878497,0.02067 1.405595,0.589109 0.527098,0.568439 0.527098,1.441768 l -0.873329,-0.0052 q -0.01034,-0.547768 -0.30489,-0.883664 -0.294555,-0.341063 -0.795815,-0.361734 -0.728635,-0.0155 -1.214392,0.542601 -0.480589,0.558104 -0.599445,1.560623 l -0.0155,0.134359 q -0.03101,0.330728 -0.01034,0.682126 0.03617,0.604613 0.341063,0.956011 0.30489,0.351399 0.837156,0.366902 z"
         id="path1522" />
      <path
         d="m 22.971479,15.221751 q 0.702798,0.01034 1.204057,0.382404 0.50126,0.372069 0.738971,1.028358 0.242878,0.651121 0.165364,1.426265 l -0.01034,0.113687 q -0.09819,0.816486 -0.485757,1.477942 -0.387572,0.656288 -1.00252,1.02319 -0.614947,0.366901 -1.34875,0.346231 -0.69763,-0.01034 -1.204057,-0.382405 -0.50126,-0.372069 -0.733803,-1.012854 -0.232544,-0.640786 -0.165364,-1.410763 0.07751,-0.868161 0.470254,-1.560623 0.392739,-0.692462 1.007687,-1.069699 0.620115,-0.382404 1.364253,-0.361733 z m -1.901686,2.997223 q -0.03617,0.325561 0,0.676959 0.05168,0.60978 0.361734,0.971514 0.315225,0.361734 0.837155,0.377237 0.465087,0.0155 0.857826,-0.227376 0.39274,-0.248046 0.661456,-0.744138 0.268717,-0.496092 0.346231,-1.100705 0.04134,-0.475421 0.0155,-0.800982 -0.06201,-0.625283 -0.377237,-0.987016 -0.315225,-0.361734 -0.837155,-0.382405 -0.723468,-0.0155 -1.229895,0.568439 -0.506428,0.583942 -0.625283,1.529618 z"
         id="path1524" />
      <path
         d="m 26.785188,20.916475 h -0.930173 l 1.374589,-7.937474 h 0.93534 z"
         id="path1526" />
      <path
         d="m 29.32766,20.916475 h -0.930172 l 0.971513,-5.591372 h 0.930173 z m 0.769977,-7.632584 q 0.237711,-0.01034 0.392739,0.144693 0.160197,0.149861 0.160197,0.397907 -0.0052,0.242879 -0.160197,0.397908 -0.149861,0.155028 -0.392739,0.165364 -0.242879,0.01033 -0.397907,-0.139526 -0.155029,-0.149861 -0.149862,-0.39274 0.0052,-0.242878 0.155029,-0.403075 0.149861,-0.160196 0.39274,-0.170531 z"
         id="path1528" />
    </g>
  </g>
</svg>
