<?xml version="1.0" encoding="UTF-8" standalone="no"?>
<!-- Created with Inkscape (http://www.inkscape.org/) -->

<svg
   width="34mm"
   height="34mm"
   viewBox="0 0 34 34"
   version="1.1"
   id="svg5"
   xmlns="http://www.w3.org/2000/svg"
   xmlns:svg="http://www.w3.org/2000/svg">
  <defs
     id="defs2" />
  <g
     id="layer1">
    <circle
       style="fill:#00b0f0;fill-opacity:1;stroke:none;stroke-width:0.264583"
       id="path846"
       cx="17"
       cy="17"
       r="17" />
    <g
       aria-label="E. coli"
       id="text3460"
       style="font-style:italic;font-weight:900;font-size:9.17222px;line-height:1.25;font-family:Roboto;-inkscape-font-specification:'Roboto, Heavy Italic';fill:#ffffff;stroke-width:0.264583">
      <path
         d="M 8.9994458,17.631854 H 6.6033824 l -0.273196,1.554082 H 9.1651549 L 8.9546596,20.395164 H 4.588002 L 5.716615,13.874289 H 10.09223 L 9.8817346,15.087996 H 7.0422875 l -0.2418457,1.374937 h 2.400542 z"
         id="path853" />
      <path
         d="m 9.7742478,19.714414 q -0.00896,-0.340376 0.2328882,-0.564307 0.241846,-0.223931 0.577743,-0.223931 0.331418,0 0.564306,0.206017 0.232888,0.201538 0.241846,0.528477 0.009,0.335897 -0.22841,0.564307 -0.237367,0.223931 -0.582221,0.223931 -0.340375,0 -0.568785,-0.206017 -0.22841,-0.206016 -0.2373672,-0.528477 z"
         id="path855" />
      <path
         d="m 16.783293,19.324774 q 0.317983,0.009 0.497128,-0.174667 0.179145,-0.188102 0.228409,-0.483691 l 1.379416,-0.0045 q -0.02687,0.532956 -0.317982,0.953947 -0.286632,0.420991 -0.77928,0.653879 -0.48817,0.22841 -1.047998,0.214974 -0.967383,-0.01791 -1.491382,-0.694187 -0.523999,-0.68075 -0.425469,-1.75562 l 0.01344,-0.107487 q 0.08061,-0.734494 0.412033,-1.298801 0.331418,-0.568785 0.868853,-0.87781 0.541914,-0.309025 1.209228,-0.29111 0.84646,0.01791 1.33463,0.541913 0.492649,0.51952 0.474734,1.406288 l -1.379416,-0.0045 q 0.02239,-0.770323 -0.55087,-0.783759 -0.779281,-0.02687 -0.895725,1.312237 l -0.04031,0.456819 -0.0045,0.170188 q 0,0.752409 0.515041,0.765845 z"
         id="path857" />
      <path
         d="m 22.03224,15.459722 q 0.6494,0.009 1.124134,0.326939 0.474734,0.313504 0.694187,0.87781 0.223931,0.564307 0.16123,1.254015 l -0.009,0.09853 q -0.125402,1.115177 -0.828546,1.800406 -0.703143,0.685229 -1.737705,0.667315 -0.644922,-0.009 -1.115177,-0.317982 -0.470256,-0.313504 -0.698666,-0.873332 -0.223931,-0.559828 -0.16123,-1.245057 0.111965,-1.191314 0.815109,-1.898936 0.707623,-0.707623 1.755621,-0.689708 z m -1.097263,2.588644 -0.01344,0.264239 q -0.0627,0.998733 0.609093,1.016647 0.868853,0.02687 1.00769,-1.410766 l 0.01791,-0.407555 q 0.009,-0.403076 -0.152273,-0.640443 -0.156752,-0.241846 -0.465777,-0.250803 -0.407554,-0.01344 -0.671793,0.335897 -0.25976,0.344854 -0.331418,1.092784 z"
         id="path859" />
      <path
         d="m 25.803239,20.395164 h -1.477945 l 1.191313,-6.879165 h 1.477946 z"
         id="path861" />
      <path
         d="m 28.293354,20.395164 h -1.477946 l 0.841981,-4.84587 h 1.477946 z M 27.787269,14.32663 q -0.009,-0.326939 0.22841,-0.546392 0.241846,-0.219452 0.582221,-0.219452 0.344854,0 0.573264,0.197059 0.232888,0.197059 0.241845,0.515042 0.009,0.331418 -0.228409,0.55087 -0.237368,0.214974 -0.582221,0.214974 -0.335897,0 -0.573264,-0.192581 -0.232889,-0.197059 -0.241846,-0.51952 z"
         id="path863" />
    </g>
  </g>
</svg>
