<?xml version="1.0" encoding="UTF-8" standalone="no"?>
<!-- Created with Inkscape (http://www.inkscape.org/) -->

<svg
   width="34mm"
   height="34mm"
   viewBox="0 0 34 34"
   version="1.1"
   id="svg5"
   xmlns="http://www.w3.org/2000/svg"
   xmlns:svg="http://www.w3.org/2000/svg">
  <defs
     id="defs2" />
  <g
     id="layer1">
    <circle
       style="fill:#00b0f0;fill-opacity:1;stroke:none;stroke-width:0.264583"
       id="path846"
       cx="17"
       cy="17"
       r="17" />
    <g
       aria-label="Entero"
       id="text3460"
       style="font-style:italic;font-size:10.5833px;line-height:1.25;font-family:Roboto;-inkscape-font-specification:'Roboto, Italic';fill:#ffffff;stroke-width:0.264583">
      <path
         d="M 7.2367137,17.232251 H 4.0741261 L 3.6090397,19.898747 H 7.28839 L 7.1436964,20.710064 H 2.498 L 3.8054095,13.185999 H 8.3994297 L 8.2547362,14.002484 H 4.6322298 l -0.4185777,2.41845 h 3.1625875 z"
         id="path1749" />
      <path
         d="m 10.094411,15.113524 -0.1343581,0.707965 q 0.7544731,-0.82682 1.7156521,-0.80615 0.790647,0.02067 1.167884,0.547769 0.377236,0.527098 0.279051,1.483109 l -0.60978,3.663847 h -0.93534 l 0.614948,-3.67935 q 0.03101,-0.253214 0.0052,-0.470254 -0.08785,-0.723468 -0.852658,-0.738971 -0.842323,-0.0155 -1.4779414,0.899167 l -0.692462,3.989408 H 8.2392331 L 9.210747,15.118692 Z"
         id="path1751" />
      <path
         d="m 16.424754,13.764774 -0.237711,1.353918 h 1.018023 l -0.129191,0.73897 H 16.06302 l -0.583942,3.477813 q -0.0155,0.134359 -0.0052,0.248046 0.03617,0.403075 0.439248,0.403075 0.170532,0 0.454751,-0.05168 l -0.07235,0.780312 q -0.335896,0.09302 -0.682127,0.09302 -0.558104,-0.01034 -0.837156,-0.408243 -0.279052,-0.403075 -0.21704,-1.080034 l 0.568439,-3.46231 h -0.987017 l 0.129191,-0.73897 h 0.987017 l 0.23771,-1.353918 z"
         id="path1753" />
      <path
         d="m 19.778544,20.813416 q -1.043861,-0.02067 -1.63297,-0.769976 -0.58911,-0.749306 -0.496092,-1.917189 l 0.02584,-0.222208 q 0.08785,-0.831988 0.490924,-1.519283 0.408243,-0.687294 0.992185,-1.033525 0.583942,-0.351399 1.260901,-0.335896 0.862993,0.02067 1.353918,0.573607 0.490924,0.552936 0.537433,1.498612 0.0155,0.335895 -0.02067,0.671791 l -0.05684,0.428913 h -3.653512 q -0.09302,0.759641 0.248046,1.291907 0.346231,0.532265 1.028357,0.552936 0.826821,0.02067 1.529618,-0.744138 l 0.537433,0.454751 q -0.351399,0.506427 -0.909502,0.795814 -0.552936,0.28422 -1.235063,0.273884 z m 0.594277,-5.017765 q -0.578774,-0.0155 -1.012855,0.39274 -0.428913,0.408242 -0.682126,1.214392 l 2.718171,0.0052 0.02067,-0.08268 q 0.08268,-0.651121 -0.211873,-1.080034 -0.289387,-0.43408 -0.831988,-0.449583 z"
         id="path1755" />
      <path
         d="m 26.325927,15.97135 -0.439248,-0.04651 q -0.899167,0 -1.41593,0.811317 l -0.687294,3.973905 h -0.93534 l 0.971513,-5.591372 0.904335,-0.0052 -0.139526,0.651121 q 0.594277,-0.780312 1.400427,-0.759641 0.170532,0 0.444416,0.07751 z"
         id="path1757" />
      <path
         d="m 29.374827,15.015339 q 0.702798,0.01033 1.204057,0.382405 0.50126,0.372069 0.738971,1.028357 0.242878,0.651121 0.165364,1.426265 l -0.01033,0.113688 q -0.09819,0.816485 -0.485757,1.477941 -0.387572,0.656289 -1.00252,1.02319 -0.614947,0.366902 -1.34875,0.346231 -0.69763,-0.01034 -1.204057,-0.382404 -0.50126,-0.372069 -0.733803,-1.012855 -0.232544,-0.640785 -0.165364,-1.410762 0.07751,-0.868161 0.470254,-1.560623 0.392739,-0.692462 1.007687,-1.069699 0.620115,-0.382404 1.364253,-0.361734 z m -1.901686,2.997224 q -0.03617,0.32556 0,0.676959 0.05168,0.60978 0.361734,0.971514 0.315225,0.361734 0.837155,0.377236 0.465086,0.0155 0.857826,-0.227375 0.39274,-0.248046 0.661456,-0.744138 0.268717,-0.496093 0.346231,-1.100705 0.04134,-0.475422 0.0155,-0.800982 -0.06201,-0.625283 -0.377237,-0.987017 -0.315225,-0.361734 -0.837155,-0.382404 -0.723468,-0.0155 -1.229895,0.568439 -0.506428,0.583942 -0.625283,1.529617 z"
         id="path1759" />
    </g>
  </g>
</svg>
