<?xml version="1.0" encoding="UTF-8" standalone="no"?>
<!-- Created with Inkscape (http://www.inkscape.org/) -->

<svg
   width="34mm"
   height="34mm"
   viewBox="0 0 34 34"
   version="1.1"
   id="svg5"
   xmlns="http://www.w3.org/2000/svg"
   xmlns:svg="http://www.w3.org/2000/svg">
  <defs
     id="defs2" />
  <g
     id="layer1">
    <circle
       style="fill:#00b0f0;fill-opacity:1;stroke:none;stroke-width:0.264583"
       id="path846"
       cx="17"
       cy="17"
       r="17" />
    <g
       aria-label="Entero"
       id="text3460"
       style="font-style:italic;font-weight:bold;font-size:9.17222px;line-height:1.25;font-family:Roboto;-inkscape-font-specification:'Roboto, Bold Italic';fill:#ffffff;stroke-width:0.264583">
      <path
         d="M 8.4259568,17.389864 H 5.9268851 L 5.6223387,19.136527 H 8.5603155 L 8.3722133,20.215876 H 4.1219999 L 5.2550916,13.695 H 9.4963477 L 9.3037669,14.783306 H 6.379226 L 6.10603,16.337388 h 2.508029 z"
         id="path867" />
      <path
         d="m 11.086259,15.365527 -0.107487,0.573264 q 0.582221,-0.676273 1.410766,-0.658358 0.685229,0.01344 1.012169,0.501606 0.326939,0.48817 0.237367,1.352544 l -0.510563,3.081293 h -1.262972 l 0.51952,-3.094729 q 0.02239,-0.174666 0.009,-0.317982 -0.05822,-0.45682 -0.573264,-0.470256 -0.497127,-0.01791 -0.891246,0.461299 l -0.604614,3.421668 H 9.0619211 l 0.8419811,-4.845871 z"
         id="path869" />
      <path
         d="m 16.68006,14.178692 -0.210496,1.191313 h 0.806152 l -0.165709,0.949468 h -0.806152 l -0.412033,2.427414 q -0.02687,0.22841 0.03583,0.349333 0.0627,0.120923 0.304546,0.12988 0.07166,0.0045 0.385162,-0.02239 l -0.08957,0.989776 q -0.335896,0.111965 -0.725537,0.103008 -0.622528,-0.009 -0.927075,-0.38964 -0.304546,-0.380683 -0.250802,-1.030084 l 0.416511,-2.557294 h -0.685229 l 0.165709,-0.949468 h 0.68523 l 0.206016,-1.191313 z"
         id="path871" />
      <path
         d="m 19.470241,20.305448 q -0.635964,-0.0045 -1.128613,-0.309025 -0.48817,-0.309025 -0.730015,-0.841981 -0.241846,-0.537435 -0.188102,-1.182357 l 0.01344,-0.179145 q 0.06718,-0.707622 0.412033,-1.2988 0.344854,-0.591178 0.886767,-0.909161 0.541914,-0.322461 1.200271,-0.304546 0.936032,0.01791 1.415245,0.689708 0.483691,0.667315 0.367247,1.692919 l -0.07166,0.550871 h -2.969327 q -0.01791,0.470256 0.22841,0.752409 0.246324,0.282153 0.671793,0.29111 0.689708,0.01792 1.209229,-0.532956 l 0.577742,0.71658 q -0.273196,0.412033 -0.788238,0.644922 -0.515041,0.228409 -1.10622,0.219452 z m 0.403077,-3.981496 q -0.349333,-0.009 -0.622529,0.219453 -0.268717,0.228409 -0.483691,0.792716 h 1.737705 l 0.02687,-0.116444 q 0.02687,-0.179145 0.0045,-0.340376 -0.04479,-0.25976 -0.219453,-0.403076 -0.174666,-0.147794 -0.443383,-0.152273 z"
         id="path873" />
      <path
         d="m 25.341717,16.583712 q -0.25976,-0.04479 -0.425469,-0.04479 -0.676273,-0.01791 -1.070391,0.506084 l -0.559828,3.170866 h -1.262972 l 0.841981,-4.845871 1.186835,-0.0045 -0.116444,0.591178 q 0.45682,-0.685229 1.128613,-0.685229 0.188102,0 0.438905,0.0627 z"
         id="path875" />
      <path
         d="m 27.925881,15.280433 q 0.640443,0.009 1.101741,0.331418 0.465777,0.317982 0.680751,0.882289 0.219452,0.559828 0.156752,1.245057 -0.103009,1.155485 -0.806152,1.872064 -0.698666,0.712102 -1.728749,0.694187 -0.631486,-0.009 -1.092784,-0.322461 -0.461298,-0.317982 -0.680751,-0.87781 -0.219452,-0.559828 -0.156752,-1.2361 0.116445,-1.200271 0.81511,-1.907893 0.698665,-0.707623 1.710834,-0.680751 z m -1.276408,3.049942 q 0.009,0.429948 0.201538,0.680751 0.192581,0.246324 0.541914,0.255282 0.582221,0.01791 0.913639,-0.532957 0.331418,-0.555349 0.309025,-1.455552 -0.01791,-0.429948 -0.210495,-0.68523 -0.188103,-0.25976 -0.541914,-0.268717 -0.564306,-0.01791 -0.904682,0.532956 -0.335896,0.546392 -0.309025,1.473467 z"
         id="path877" />
    </g>
  </g>
</svg>
