<?xml version="1.0" encoding="UTF-8" standalone="no"?>
<!-- Created with Inkscape (http://www.inkscape.org/) -->

<svg
   width="34mm"
   height="34mm"
   viewBox="0 0 34 33.999999"
   version="1.1"
   id="svg5"
   xmlns="http://www.w3.org/2000/svg"
   xmlns:svg="http://www.w3.org/2000/svg">
  <defs
     id="defs2" />
  <g
     id="layer1">
    <circle
       style="fill:#00b0f0;fill-opacity:1;stroke:none;stroke-width:0.264583"
       id="path846"
       cx="17"
       cy="17"
       r="17" />
    <g
       aria-label="pH"
       id="text3460"
       style="font-weight:bold;font-size:17.6389px;line-height:1.25;font-family:Roboto;-inkscape-font-specification:'Roboto, Bold';fill:#ffffff;stroke-width:0.264583">
      <path
         d="m 15.238813,16.905789 q 0,2.153186 -0.981853,3.453711 -0.97324,1.291911 -2.6355,1.291911 -1.41249,0 -2.2823769,-0.981852 v 4.392499 H 6.8499999 V 12.160167 h 2.3082155 l 0.086127,0.912951 q 0.9043381,-1.085206 2.3598921,-1.085206 1.722549,0 2.678563,1.274686 0.956015,1.274686 0.956015,3.514 z M 12.74973,16.724922 q 0,-1.300525 -0.465088,-2.00677 -0.456476,-0.706245 -1.334976,-0.706245 -1.171333,0 -1.6105829,0.895725 v 3.815446 q 0.4564754,0.921564 1.6278089,0.921564 1.782838,0 1.782838,-2.91972 z"
         id="path849" />
      <path
         d="M 27.150239,21.479156 H 24.566415 V 16.104804 H 19.52796 v 5.374352 H 16.944136 V 8.9390005 H 19.52796 V 14.02052 h 5.038455 V 8.9390005 h 2.583824 z"
         id="path851" />
    </g>
  </g>
</svg>
