<?xml version="1.0" encoding="UTF-8" standalone="no"?>
<!-- Created with Inkscape (http://www.inkscape.org/) -->

<svg
   width="34mm"
   height="34mm"
   viewBox="0 0 34 34"
   version="1.1"
   id="svg5"
   xmlns="http://www.w3.org/2000/svg"
   xmlns:svg="http://www.w3.org/2000/svg">
  <defs
     id="defs2" />
  <g
     id="layer1">
    <circle
       style="fill:#00b0f0;fill-opacity:1;stroke:none;stroke-width:0.264583"
       id="path846"
       cx="17"
       cy="17"
       r="17" />
    <g
       aria-label="S"
       id="text3460"
       style="font-weight:bold;font-size:21.1667px;line-height:1.25;font-family:Roboto;-inkscape-font-specification:'Roboto, Bold';fill:#ffffff;stroke-width:0.264583">
      <path
         d="m 19.661607,20.575821 q 0,-0.878501 -0.620118,-1.343589 -0.620118,-0.475424 -2.232426,-0.992189 -1.612307,-0.527101 -2.552819,-1.033531 -2.563156,-1.38493 -2.563156,-3.731044 0,-1.219566 0.68213,-2.170414 0.692466,-0.961183 1.974043,-1.4986186 1.291913,-0.5374358 2.893885,-0.5374358 1.612307,0 2.873214,0.5891123 1.260907,0.5787771 1.953373,1.6433131 0.7028,1.064536 0.7028,2.418461 h -3.100591 q 0,-1.03353 -0.651124,-1.601972 -0.651124,-0.578777 -1.829348,-0.578777 -1.136884,0 -1.767337,0.485759 -0.630454,0.475424 -0.630454,1.260907 0,0.733807 0.733807,1.229901 0.744142,0.496095 2.180749,0.930178 2.645837,0.795818 3.855068,1.974042 1.20923,1.178225 1.20923,2.935226 0,1.953373 -1.477948,3.069585 -1.477948,1.105878 -3.979092,1.105878 -1.736331,0 -3.162602,-0.630454 Q 12.726619,23.459371 11.972142,22.353493 11.228,21.247616 11.228,19.790338 h 3.110926 q 0,2.490808 2.976567,2.490808 1.105878,0 1.725996,-0.444418 0.620118,-0.454753 0.620118,-1.260907 z"
         id="path2631" />
    </g>
  </g>
</svg>
