<?xml version="1.0" encoding="UTF-8" standalone="no"?>
<!-- Created with Inkscape (http://www.inkscape.org/) -->

<svg
   width="34mm"
   height="34mm"
   viewBox="0 0 34 34"
   version="1.1"
   id="svg5"
   xmlns="http://www.w3.org/2000/svg"
   xmlns:svg="http://www.w3.org/2000/svg">
  <defs
     id="defs2" />
  <g
     id="layer1">
    <circle
       style="fill:#00b0f0;fill-opacity:1;stroke:none;stroke-width:0.264583"
       id="path846"
       cx="17"
       cy="17"
       r="17" />
    <g
       aria-label="S"
       id="text3460"
       style="font-weight:900;font-size:17.6389px;line-height:1.25;font-family:Roboto;-inkscape-font-specification:'Roboto, Heavy';fill:#ffffff;stroke-width:0.264583">
      <path
         d="m 18.921357,19.937278 q 0,-0.663181 -0.473701,-1.033529 -0.465088,-0.370348 -1.645034,-0.766534 -1.179946,-0.396186 -1.929255,-0.766534 -2.437407,-1.197172 -2.437407,-3.290069 0,-1.042142 0.602893,-1.834514 0.611504,-0.800986 1.722548,-1.240236 1.111045,-0.447862 2.497696,-0.447862 1.352201,0 2.420182,0.482313 1.076593,0.482314 1.670872,1.378039 0.594279,0.887113 0.594279,2.032608 h -3.01446 q 0,-0.766534 -0.473701,-1.188559 -0.465088,-0.422024 -1.266074,-0.422024 -0.809598,0 -1.283299,0.361735 -0.465088,0.353123 -0.465088,0.904338 0,0.482314 0.516765,0.8785 0.516765,0.387574 1.817289,0.809598 1.300524,0.413412 2.135961,0.895726 2.032607,1.171333 2.032607,3.229779 0,1.645034 -1.240235,2.583823 -1.240235,0.938789 -3.402034,0.938789 -1.524456,0 -2.764691,-0.542602 Q 13.305848,22.348847 12.677117,21.401445 12.057,20.44543 12.057,19.205195 h 3.031686 q 0,1.007691 0.516764,1.490005 0.525378,0.473701 1.696711,0.473701 0.749309,0 1.179946,-0.318672 0.43925,-0.327284 0.43925,-0.912951 z"
         id="path849" />
    </g>
  </g>
</svg>
