<?xml version="1.0" encoding="UTF-8" standalone="no"?>
<!-- Created with Inkscape (http://www.inkscape.org/) -->

<svg
   width="34mm"
   height="34mm"
   viewBox="0 0 34 34"
   version="1.1"
   id="svg5"
   xmlns="http://www.w3.org/2000/svg"
   xmlns:svg="http://www.w3.org/2000/svg">
  <defs
     id="defs2" />
  <g
     id="layer1">
    <circle
       style="fill:#00b0f0;fill-opacity:1;stroke:none;stroke-width:0.264583"
       id="path846"
       cx="17"
       cy="17"
       r="17" />
    <g
       aria-label="Temp"
       id="text3460"
       style="font-weight:900;font-size:9.17222px;line-height:1.25;font-family:Roboto;-inkscape-font-specification:'Roboto, Heavy';fill:#ffffff;stroke-width:0.264583">
      <path
         d="M 10.931484,14.021706 H 8.9743259 v 5.307169 H 7.4023292 V 14.021706 H 5.4809998 v -1.213707 h 5.4504842 z"
         id="path849" />
      <path
         d="m 13.470864,19.418447 q -1.115178,0 -1.804886,-0.662836 -0.689708,-0.667315 -0.689708,-1.733227 v -0.125402 q 0,-0.743451 0.273196,-1.312236 0.277675,-0.568786 0.806153,-0.877811 0.528477,-0.313503 1.254014,-0.313503 1.021126,0 1.612304,0.635964 0.591179,0.631486 0.591179,1.764578 v 0.5867 h -3.000678 q 0.08061,0.407554 0.353811,0.640443 0.273196,0.232888 0.707623,0.232888 0.71658,0 1.119656,-0.501606 l 0.689708,0.81511 q -0.282154,0.38964 -0.801674,0.622528 -0.515042,0.22841 -1.110698,0.22841 z m -0.170188,-3.860573 q -0.662836,0 -0.788238,0.87781 H 14.03517 V 16.31924 q 0.009,-0.362769 -0.183623,-0.559828 -0.192581,-0.201538 -0.550871,-0.201538 z"
         id="path851" />
      <path
         d="m 17.546411,14.483004 0.04927,0.568785 q 0.515042,-0.658357 1.383894,-0.658357 0.918118,0 1.240579,0.730015 0.492649,-0.730015 1.424202,-0.730015 1.473467,0 1.513775,1.782492 v 3.152951 h -1.513775 v -3.0589 q 0,-0.371726 -0.125401,-0.541913 -0.125402,-0.170188 -0.45682,-0.170188 -0.447862,0 -0.667315,0.398597 l 0.0045,0.0627 v 3.309703 h -1.513775 v -3.049943 q 0,-0.380683 -0.120922,-0.55087 -0.120923,-0.170188 -0.461299,-0.170188 -0.434426,0 -0.662836,0.398597 v 3.372404 h -1.509296 v -4.845871 z"
         id="path853" />
      <path
         d="m 28.519038,16.941768 q 0,1.128613 -0.510563,1.804886 -0.506084,0.671793 -1.370459,0.671793 -0.667315,0 -1.097262,-0.48817 v 2.261705 h -1.509296 v -6.708978 h 1.410766 l 0.04479,0.447863 q 0.434427,-0.537435 1.142049,-0.537435 0.895725,0 1.392852,0.662836 0.497127,0.658358 0.497127,1.813842 z m -1.509296,-0.09405 q 0,-1.289843 -0.752409,-1.289843 -0.537435,0 -0.716579,0.385161 v 1.907894 q 0.197059,0.403076 0.725537,0.403076 0.721058,0 0.743451,-1.245057 z"
         id="path855" />
    </g>
  </g>
</svg>
