<?xml version="1.0" encoding="UTF-8" standalone="no"?>
<!-- Created with Inkscape (http://www.inkscape.org/) -->

<svg
   width="34mm"
   height="34mm"
   viewBox="0 0 34 34"
   version="1.1"
   id="svg5"
   xmlns="http://www.w3.org/2000/svg"
   xmlns:svg="http://www.w3.org/2000/svg">
  <defs
     id="defs2" />
  <g
     id="layer1">
    <circle
       style="fill:#00b0f0;fill-opacity:1;stroke:none;stroke-width:0.264583"
       id="path846"
       cx="17"
       cy="17"
       r="17" />
    <g
       aria-label="Temp"
       id="text3460"
       style="font-size:10.5833px;line-height:1.25;font-family:Roboto;-inkscape-font-specification:'Roboto, Normal';fill:#ffffff;stroke-width:0.264583">
      <path
         d="M 9.8797477,12.979486 H 7.4612984 v 6.707579 H 6.4742816 V 12.979486 H 4.0609999 v -0.816485 h 5.8187478 z"
         id="path2847" />
      <path
         d="m 12.654763,19.790418 q -1.136877,0 -1.85001,-0.744139 -0.713132,-0.749305 -0.713132,-1.999871 v -0.175699 q 0,-0.831988 0.315225,-1.483109 0.320393,-0.656289 0.888832,-1.02319 0.573606,-0.37207 1.24023,-0.37207 1.090369,0 1.694982,0.718301 0.604612,0.7183 0.604612,2.056715 v 0.397907 h -3.78787 q 0.02067,0.826821 0.480589,1.338416 0.465086,0.506427 1.178219,0.506427 0.506427,0 0.857826,-0.206705 0.351398,-0.206705 0.614947,-0.547768 l 0.583942,0.454751 q -0.702797,1.080034 -2.108392,1.080034 z M 12.535908,14.77782 q -0.578774,0 -0.971514,0.423745 -0.392739,0.418578 -0.485757,1.178219 h 2.800854 v -0.07235 Q 13.83815,15.578802 13.486751,15.180895 13.135353,14.77782 12.535908,14.77782 Z"
         id="path2849" />
      <path
         d="m 16.840541,14.095693 0.02584,0.620115 q 0.614948,-0.723468 1.658808,-0.723468 1.173052,0 1.596797,0.899167 0.279052,-0.403074 0.723468,-0.65112 0.449583,-0.248047 1.059363,-0.248047 1.839675,0 1.870681,1.948196 v 3.746529 H 22.819485 V 15.99738 q 0,-0.599445 -0.273884,-0.894 -0.273884,-0.299722 -0.919838,-0.299722 -0.532265,0 -0.883664,0.320393 -0.351398,0.315225 -0.408242,0.852658 v 3.710356 h -0.961179 v -3.663847 q 0,-1.21956 -1.193722,-1.21956 -0.940508,0 -1.286739,0.800982 v 4.082425 h -0.956011 v -5.591372 z"
         id="path2851" />
      <path
         d="m 29.940475,16.953391 q 0,1.276403 -0.583942,2.056715 -0.583941,0.780312 -1.581293,0.780312 -1.018023,0 -1.601965,-0.645954 v 2.692334 h -0.956011 v -7.741105 h 0.873329 l 0.04651,0.620115 q 0.583942,-0.723468 1.622635,-0.723468 1.007687,0 1.591629,0.759642 0.589109,0.759641 0.589109,2.113559 z M 28.984464,16.84487 q 0,-0.945675 -0.403075,-1.493444 -0.403075,-0.547768 -1.105872,-0.547768 -0.868161,0 -1.302242,0.769976 v 2.671663 q 0.428913,0.764809 1.312577,0.764809 0.687295,0 1.09037,-0.542601 0.408242,-0.547768 0.408242,-1.622635 z"
         id="path2853" />
    </g>
  </g>
</svg>
