<?xml version="1.0" encoding="UTF-8" standalone="no"?>
<!-- Created with Inkscape (http://www.inkscape.org/) -->

<svg
   width="34mm"
   height="34mm"
   viewBox="0 0 34 34"
   version="1.1"
   id="svg5"
   xmlns="http://www.w3.org/2000/svg"
   xmlns:svg="http://www.w3.org/2000/svg">
  <defs
     id="defs2" />
  <g
     id="layer1">
    <circle
       style="fill:#00b0f0;fill-opacity:1;stroke:none;stroke-width:0.264583"
       id="path846"
       cx="17"
       cy="17"
       r="17" />
    <g
       aria-label="Turb"
       id="text3460"
       style="font-weight:900;font-size:9.17222px;line-height:1.25;font-family:Roboto;-inkscape-font-specification:'Roboto, Heavy';fill:#ffffff;stroke-width:0.264583">
      <path
         d="m 13.000484,15.087996 h -1.957158 v 5.307168 H 9.4713294 V 15.087996 H 7.5500001 v -1.213707 h 5.4504839 z"
         id="path849" />
      <path
         d="m 16.189264,19.871166 q -0.479213,0.613571 -1.294322,0.613571 -0.797195,0 -1.209228,-0.461298 -0.407555,-0.465777 -0.407555,-1.33463 v -3.139515 h 1.509296 v 3.148472 q 0,0.622529 0.604614,0.622529 0.51952,0 0.738973,-0.371726 v -3.399275 h 1.518253 v 4.84587 H 16.23405 Z"
         id="path851" />
      <path
         d="m 21.406859,16.915274 -0.497127,-0.03583 q -0.712101,0 -0.913639,0.447863 v 3.067856 h -1.509296 v -4.84587 h 1.415245 l 0.04926,0.622529 q 0.380683,-0.712101 1.061433,-0.712101 0.241846,0 0.420991,0.05374 z"
         id="path853" />
      <path
         d="m 26.44979,18.012537 q 0,1.191314 -0.492649,1.831757 -0.492648,0.640443 -1.388373,0.640443 -0.738973,0 -1.191314,-0.5867 l -0.0627,0.497127 h -1.352545 v -6.879165 h 1.509296 v 2.422935 q 0.420991,-0.479212 1.088306,-0.479212 0.904682,0 1.39733,0.6494 0.492649,0.6494 0.492649,1.827278 z m -1.513775,-0.09405 q 0,-0.698665 -0.188102,-0.994254 -0.183624,-0.300068 -0.568785,-0.300068 -0.510563,0 -0.707623,0.38964 v 1.925808 q 0.192581,0.385162 0.71658,0.385162 0.532956,0 0.676272,-0.519521 0.07166,-0.255281 0.07166,-0.886767 z"
         id="path855" />
    </g>
  </g>
</svg>
