<?xml version="1.0" encoding="UTF-8" standalone="no"?>
<!-- Created with Inkscape (http://www.inkscape.org/) -->

<svg
   width="34mm"
   height="34mm"
   viewBox="0 0 34 34"
   version="1.1"
   id="svg5"
   xmlns="http://www.w3.org/2000/svg"
   xmlns:svg="http://www.w3.org/2000/svg">
  <defs
     id="defs2" />
  <g
     id="layer1">
    <circle
       style="fill:#00b0f0;fill-opacity:1;stroke:none;stroke-width:0.264583"
       id="path846"
       cx="17"
       cy="17"
       r="17" />
    <g
       aria-label="Turb"
       id="text3460"
       style="font-size:10.5833px;line-height:1.25;font-family:Roboto;-inkscape-font-specification:'Roboto, Normal';fill:#ffffff;stroke-width:0.264583">
      <path
         d="m 12.597748,14.209895 h -2.418449 v 6.70758 H 9.1922818 v -6.70758 H 6.7790001 V 13.39341 h 5.8187479 z"
         id="path3072" />
      <path
         d="m 16.525144,20.364539 q -0.558103,0.656288 -1.638137,0.656288 -0.894,0 -1.364254,-0.516762 -0.465086,-0.521931 -0.470254,-1.539953 v -3.638009 h 0.956011 v 3.612171 q 0,1.271236 1.033525,1.271236 1.095537,0 1.457271,-0.816485 v -4.066922 h 0.956011 v 5.591372 h -0.909502 z"
         id="path3074" />
      <path
         d="m 21.610089,16.183929 q -0.21704,-0.03617 -0.470254,-0.03617 -0.940508,0 -1.276404,0.800982 v 3.968738 H 18.90742 v -5.591372 h 0.930173 l 0.0155,0.645953 q 0.470254,-0.749306 1.333247,-0.749306 0.279052,0 0.423746,0.07235 z"
         id="path3076" />
      <path
         d="m 27.222132,18.1838 q 0,1.281572 -0.58911,2.061883 -0.589109,0.775144 -1.581294,0.775144 -1.059363,0 -1.638137,-0.749306 l -0.04651,0.645954 H 22.488585 V 12.98 h 0.956011 v 2.96105 q 0.578775,-0.7183 1.596797,-0.7183 1.018022,0 1.596797,0.769976 0.583942,0.769977 0.583942,2.108392 z m -0.956011,-0.10852 q 0,-0.976681 -0.377237,-1.508947 -0.377237,-0.532266 -1.085202,-0.532266 -0.945676,0 -1.359086,0.878497 v 2.418449 q 0.439249,0.878497 1.369421,0.878497 0.687295,0 1.069699,-0.532266 0.382405,-0.532265 0.382405,-1.601964 z"
         id="path3078" />
    </g>
  </g>
</svg>
