<?xml version="1.0" encoding="UTF-8" standalone="no"?>
<!-- Created with Inkscape (http://www.inkscape.org/) -->

<svg
   width="115mm"
   height="93mm"
   viewBox="0 0 115 93"
   version="1.1"
   id="svg892"
   xmlns="http://www.w3.org/2000/svg"
   xmlns:svg="http://www.w3.org/2000/svg"
   xmlns:rdf="http://www.w3.org/1999/02/22-rdf-syntax-ns#"
   xmlns:cc="http://creativecommons.org/ns#"
   xmlns:dc="http://purl.org/dc/elements/1.1/">
  <title
     id="title1345">ETT logo</title>
  <defs
     id="defs889">
    <clipPath
       id="clip0">
      <rect
         x="533"
         y="237"
         width="192"
         height="85"
         id="rect896" />
    </clipPath>
    <clipPath
       id="clip0-7">
      <rect
         x="553"
         y="199"
         width="143"
         height="52"
         id="rect916" />
    </clipPath>
    <linearGradient
       x1="553.5"
       y1="225.265"
       x2="695.47803"
       y2="225.265"
       gradientUnits="userSpaceOnUse"
       spreadMethod="reflect"
       id="stroke1">
      <stop
         offset="0"
         stop-color="#63C247"
         id="stop919" />
      <stop
         offset="0.00740741"
         stop-color="#62C148"
         id="stop921" />
      <stop
         offset="0.0148148"
         stop-color="#62C14A"
         id="stop923" />
      <stop
         offset="0.0222222"
         stop-color="#62C14C"
         id="stop925" />
      <stop
         offset="0.0296296"
         stop-color="#62C14E"
         id="stop927" />
      <stop
         offset="0.037037"
         stop-color="#62C150"
         id="stop929" />
      <stop
         offset="0.0444444"
         stop-color="#62C152"
         id="stop931" />
      <stop
         offset="0.0518519"
         stop-color="#62C153"
         id="stop933" />
      <stop
         offset="0.0592593"
         stop-color="#62C155"
         id="stop935" />
      <stop
         offset="0.0666667"
         stop-color="#62C157"
         id="stop937" />
      <stop
         offset="0.0740741"
         stop-color="#62C159"
         id="stop939" />
      <stop
         offset="0.0814815"
         stop-color="#62C15B"
         id="stop941" />
      <stop
         offset="0.0888889"
         stop-color="#61C15C"
         id="stop943" />
      <stop
         offset="0.0962963"
         stop-color="#61C15E"
         id="stop945" />
      <stop
         offset="0.103704"
         stop-color="#61C160"
         id="stop947" />
      <stop
         offset="0.111111"
         stop-color="#61C161"
         id="stop949" />
      <stop
         offset="0.118519"
         stop-color="#61C163"
         id="stop951" />
      <stop
         offset="0.125926"
         stop-color="#60C165"
         id="stop953" />
      <stop
         offset="0.133333"
         stop-color="#60C167"
         id="stop955" />
      <stop
         offset="0.140741"
         stop-color="#60C168"
         id="stop957" />
      <stop
         offset="0.148148"
         stop-color="#60C16A"
         id="stop959" />
      <stop
         offset="0.155556"
         stop-color="#5FC16B"
         id="stop961" />
      <stop
         offset="0.162963"
         stop-color="#5FC16D"
         id="stop963" />
      <stop
         offset="0.17037"
         stop-color="#5FC06F"
         id="stop965" />
      <stop
         offset="0.177778"
         stop-color="#5FC070"
         id="stop967" />
      <stop
         offset="0.185185"
         stop-color="#5EC072"
         id="stop969" />
      <stop
         offset="0.192593"
         stop-color="#5EC073"
         id="stop971" />
      <stop
         offset="0.2"
         stop-color="#5EC075"
         id="stop973" />
      <stop
         offset="0.207407"
         stop-color="#5DC077"
         id="stop975" />
      <stop
         offset="0.214815"
         stop-color="#5DC078"
         id="stop977" />
      <stop
         offset="0.222222"
         stop-color="#5DC07A"
         id="stop979" />
      <stop
         offset="0.22963"
         stop-color="#5CC07B"
         id="stop981" />
      <stop
         offset="0.237037"
         stop-color="#5CC07D"
         id="stop983" />
      <stop
         offset="0.244444"
         stop-color="#5BBF7E"
         id="stop985" />
      <stop
         offset="0.251852"
         stop-color="#5BBF80"
         id="stop987" />
      <stop
         offset="0.259259"
         stop-color="#5BBF81"
         id="stop989" />
      <stop
         offset="0.266667"
         stop-color="#5ABF82"
         id="stop991" />
      <stop
         offset="0.274074"
         stop-color="#5ABF84"
         id="stop993" />
      <stop
         offset="0.281481"
         stop-color="#59BF85"
         id="stop995" />
      <stop
         offset="0.288889"
         stop-color="#59BF87"
         id="stop997" />
      <stop
         offset="0.296296"
         stop-color="#58BF88"
         id="stop999" />
      <stop
         offset="0.303704"
         stop-color="#58BE8A"
         id="stop1001" />
      <stop
         offset="0.311111"
         stop-color="#57BE8B"
         id="stop1003" />
      <stop
         offset="0.318519"
         stop-color="#57BE8C"
         id="stop1005" />
      <stop
         offset="0.325926"
         stop-color="#56BE8E"
         id="stop1007" />
      <stop
         offset="0.333333"
         stop-color="#56BE8F"
         id="stop1009" />
      <stop
         offset="0.340741"
         stop-color="#55BE90"
         id="stop1011" />
      <stop
         offset="0.348148"
         stop-color="#55BD92"
         id="stop1013" />
      <stop
         offset="0.355556"
         stop-color="#54BD93"
         id="stop1015" />
      <stop
         offset="0.362963"
         stop-color="#54BD94"
         id="stop1017" />
      <stop
         offset="0.37037"
         stop-color="#53BD95"
         id="stop1019" />
      <stop
         offset="0.377778"
         stop-color="#53BD97"
         id="stop1021" />
      <stop
         offset="0.385185"
         stop-color="#52BD98"
         id="stop1023" />
      <stop
         offset="0.392593"
         stop-color="#51BC99"
         id="stop1025" />
      <stop
         offset="0.4"
         stop-color="#51BC9A"
         id="stop1027" />
      <stop
         offset="0.407407"
         stop-color="#50BC9C"
         id="stop1029" />
      <stop
         offset="0.414815"
         stop-color="#4FBC9D"
         id="stop1031" />
      <stop
         offset="0.422222"
         stop-color="#4FBC9E"
         id="stop1033" />
      <stop
         offset="0.42963"
         stop-color="#4EBC9F"
         id="stop1035" />
      <stop
         offset="0.437037"
         stop-color="#4EBBA0"
         id="stop1037" />
      <stop
         offset="0.444444"
         stop-color="#4DBBA1"
         id="stop1039" />
      <stop
         offset="0.451852"
         stop-color="#4CBBA2"
         id="stop1041" />
      <stop
         offset="0.459259"
         stop-color="#4BBBA4"
         id="stop1043" />
      <stop
         offset="0.466667"
         stop-color="#4BBBA5"
         id="stop1045" />
      <stop
         offset="0.474074"
         stop-color="#4ABAA6"
         id="stop1047" />
      <stop
         offset="0.481481"
         stop-color="#49BAA7"
         id="stop1049" />
      <stop
         offset="0.488889"
         stop-color="#49BAA8"
         id="stop1051" />
      <stop
         offset="0.496296"
         stop-color="#48BAA9"
         id="stop1053" />
      <stop
         offset="0.503704"
         stop-color="#47B9AA"
         id="stop1055" />
      <stop
         offset="0.511111"
         stop-color="#46B9AB"
         id="stop1057" />
      <stop
         offset="0.518519"
         stop-color="#46B9AC"
         id="stop1059" />
      <stop
         offset="0.525926"
         stop-color="#45B9AD"
         id="stop1061" />
      <stop
         offset="0.533333"
         stop-color="#44B9AE"
         id="stop1063" />
      <stop
         offset="0.540741"
         stop-color="#43B8AF"
         id="stop1065" />
      <stop
         offset="0.548148"
         stop-color="#42B8B0"
         id="stop1067" />
      <stop
         offset="0.555556"
         stop-color="#42B8B1"
         id="stop1069" />
      <stop
         offset="0.562963"
         stop-color="#41B8B2"
         id="stop1071" />
      <stop
         offset="0.57037"
         stop-color="#40B7B3"
         id="stop1073" />
      <stop
         offset="0.577778"
         stop-color="#3FB7B3"
         id="stop1075" />
      <stop
         offset="0.585185"
         stop-color="#3EB7B4"
         id="stop1077" />
      <stop
         offset="0.592593"
         stop-color="#3DB7B5"
         id="stop1079" />
      <stop
         offset="0.6"
         stop-color="#3DB6B6"
         id="stop1081" />
      <stop
         offset="0.607407"
         stop-color="#3CB6B7"
         id="stop1083" />
      <stop
         offset="0.614815"
         stop-color="#3BB6B8"
         id="stop1085" />
      <stop
         offset="0.622222"
         stop-color="#3AB6B9"
         id="stop1087" />
      <stop
         offset="0.62963"
         stop-color="#39B5B9"
         id="stop1089" />
      <stop
         offset="0.637037"
         stop-color="#38B5BA"
         id="stop1091" />
      <stop
         offset="0.644444"
         stop-color="#37B5BB"
         id="stop1093" />
      <stop
         offset="0.651852"
         stop-color="#36B5BC"
         id="stop1095" />
      <stop
         offset="0.659259"
         stop-color="#35B4BC"
         id="stop1097" />
      <stop
         offset="0.666667"
         stop-color="#34B4BD"
         id="stop1099" />
      <stop
         offset="0.674074"
         stop-color="#33B4BE"
         id="stop1101" />
      <stop
         offset="0.681481"
         stop-color="#32B3BF"
         id="stop1103" />
      <stop
         offset="0.688889"
         stop-color="#31B3BF"
         id="stop1105" />
      <stop
         offset="0.696296"
         stop-color="#30B3C0"
         id="stop1107" />
      <stop
         offset="0.703704"
         stop-color="#2FB2C1"
         id="stop1109" />
      <stop
         offset="0.711111"
         stop-color="#2EB2C1"
         id="stop1111" />
      <stop
         offset="0.718518"
         stop-color="#2DB2C2"
         id="stop1113" />
      <stop
         offset="0.725926"
         stop-color="#2CB2C2"
         id="stop1115" />
      <stop
         offset="0.733333"
         stop-color="#2BB1C3"
         id="stop1117" />
      <stop
         offset="0.740741"
         stop-color="#2AB1C4"
         id="stop1119" />
      <stop
         offset="0.748148"
         stop-color="#29B1C4"
         id="stop1121" />
      <stop
         offset="0.755556"
         stop-color="#28B0C5"
         id="stop1123" />
      <stop
         offset="0.762963"
         stop-color="#27B0C5"
         id="stop1125" />
      <stop
         offset="0.77037"
         stop-color="#26B0C6"
         id="stop1127" />
      <stop
         offset="0.777778"
         stop-color="#25AFC6"
         id="stop1129" />
      <stop
         offset="0.785185"
         stop-color="#24AFC7"
         id="stop1131" />
      <stop
         offset="0.792593"
         stop-color="#22AFC7"
         id="stop1133" />
      <stop
         offset="0.8"
         stop-color="#21AEC8"
         id="stop1135" />
      <stop
         offset="0.807407"
         stop-color="#20AEC8"
         id="stop1137" />
      <stop
         offset="0.814815"
         stop-color="#1FAEC9"
         id="stop1139" />
      <stop
         offset="0.822222"
         stop-color="#1EADC9"
         id="stop1141" />
      <stop
         offset="0.82963"
         stop-color="#1DADCA"
         id="stop1143" />
      <stop
         offset="0.837037"
         stop-color="#1CADCA"
         id="stop1145" />
      <stop
         offset="0.844444"
         stop-color="#1AACCA"
         id="stop1147" />
      <stop
         offset="0.851852"
         stop-color="#19ACCB"
         id="stop1149" />
      <stop
         offset="0.859259"
         stop-color="#18ACCB"
         id="stop1151" />
      <stop
         offset="0.866667"
         stop-color="#17ABCB"
         id="stop1153" />
      <stop
         offset="0.874074"
         stop-color="#16ABCC"
         id="stop1155" />
      <stop
         offset="0.881481"
         stop-color="#14ABCC"
         id="stop1157" />
      <stop
         offset="0.888889"
         stop-color="#13AACC"
         id="stop1159" />
      <stop
         offset="0.896296"
         stop-color="#12AACD"
         id="stop1161" />
      <stop
         offset="0.903704"
         stop-color="#11AACD"
         id="stop1163" />
      <stop
         offset="0.911111"
         stop-color="#0FA9CD"
         id="stop1165" />
      <stop
         offset="0.918519"
         stop-color="#0EA9CD"
         id="stop1167" />
      <stop
         offset="0.925926"
         stop-color="#0DA8CD"
         id="stop1169" />
      <stop
         offset="0.933333"
         stop-color="#0CA8CE"
         id="stop1171" />
      <stop
         offset="0.940741"
         stop-color="#0AA8CE"
         id="stop1173" />
      <stop
         offset="0.948148"
         stop-color="#09A7CE"
         id="stop1175" />
      <stop
         offset="0.955556"
         stop-color="#08A7CE"
         id="stop1177" />
      <stop
         offset="0.962963"
         stop-color="#06A6CE"
         id="stop1179" />
      <stop
         offset="0.97037"
         stop-color="#05A6CE"
         id="stop1181" />
      <stop
         offset="0.977778"
         stop-color="#04A6CE"
         id="stop1183" />
      <stop
         offset="0.985185"
         stop-color="#02A5CE"
         id="stop1185" />
      <stop
         offset="0.992593"
         stop-color="#01A5CE"
         id="stop1187" />
      <stop
         offset="1"
         stop-color="#00A5CF"
         id="stop1189" />
    </linearGradient>
    <clipPath
       id="clip0-9">
      <rect
         x="555"
         y="49"
         width="192"
         height="66"
         id="rect1891" />
    </clipPath>
    <pattern
       id="EMFhbasepattern"
       patternUnits="userSpaceOnUse"
       width="6"
       height="6"
       x="0"
       y="0" />
    <clipPath
       id="clip0-6">
      <rect
         x="392"
         y="111"
         width="188"
         height="51"
         id="rect2014" />
    </clipPath>
    <clipPath
       id="clip0-7-9">
      <rect
         x="553"
         y="199"
         width="143"
         height="52"
         id="rect916-4" />
    </clipPath>
    <linearGradient
       x1="553.5"
       y1="225.265"
       x2="695.47803"
       y2="225.265"
       gradientUnits="userSpaceOnUse"
       spreadMethod="reflect"
       id="stroke1-7">
      <stop
         offset="0"
         stop-color="#63C247"
         id="stop919-1" />
      <stop
         offset="0.00740741"
         stop-color="#62C148"
         id="stop921-1" />
      <stop
         offset="0.0148148"
         stop-color="#62C14A"
         id="stop923-6" />
      <stop
         offset="0.0222222"
         stop-color="#62C14C"
         id="stop925-0" />
      <stop
         offset="0.0296296"
         stop-color="#62C14E"
         id="stop927-2" />
      <stop
         offset="0.037037"
         stop-color="#62C150"
         id="stop929-9" />
      <stop
         offset="0.0444444"
         stop-color="#62C152"
         id="stop931-4" />
      <stop
         offset="0.0518519"
         stop-color="#62C153"
         id="stop933-3" />
      <stop
         offset="0.0592593"
         stop-color="#62C155"
         id="stop935-5" />
      <stop
         offset="0.0666667"
         stop-color="#62C157"
         id="stop937-5" />
      <stop
         offset="0.0740741"
         stop-color="#62C159"
         id="stop939-8" />
      <stop
         offset="0.0814815"
         stop-color="#62C15B"
         id="stop941-7" />
      <stop
         offset="0.0888889"
         stop-color="#61C15C"
         id="stop943-8" />
      <stop
         offset="0.0962963"
         stop-color="#61C15E"
         id="stop945-6" />
      <stop
         offset="0.103704"
         stop-color="#61C160"
         id="stop947-7" />
      <stop
         offset="0.111111"
         stop-color="#61C161"
         id="stop949-7" />
      <stop
         offset="0.118519"
         stop-color="#61C163"
         id="stop951-8" />
      <stop
         offset="0.125926"
         stop-color="#60C165"
         id="stop953-2" />
      <stop
         offset="0.133333"
         stop-color="#60C167"
         id="stop955-6" />
      <stop
         offset="0.140741"
         stop-color="#60C168"
         id="stop957-9" />
      <stop
         offset="0.148148"
         stop-color="#60C16A"
         id="stop959-2" />
      <stop
         offset="0.155556"
         stop-color="#5FC16B"
         id="stop961-6" />
      <stop
         offset="0.162963"
         stop-color="#5FC16D"
         id="stop963-5" />
      <stop
         offset="0.17037"
         stop-color="#5FC06F"
         id="stop965-7" />
      <stop
         offset="0.177778"
         stop-color="#5FC070"
         id="stop967-9" />
      <stop
         offset="0.185185"
         stop-color="#5EC072"
         id="stop969-6" />
      <stop
         offset="0.192593"
         stop-color="#5EC073"
         id="stop971-8" />
      <stop
         offset="0.2"
         stop-color="#5EC075"
         id="stop973-5" />
      <stop
         offset="0.207407"
         stop-color="#5DC077"
         id="stop975-8" />
      <stop
         offset="0.214815"
         stop-color="#5DC078"
         id="stop977-3" />
      <stop
         offset="0.222222"
         stop-color="#5DC07A"
         id="stop979-6" />
      <stop
         offset="0.22963"
         stop-color="#5CC07B"
         id="stop981-2" />
      <stop
         offset="0.237037"
         stop-color="#5CC07D"
         id="stop983-3" />
      <stop
         offset="0.244444"
         stop-color="#5BBF7E"
         id="stop985-4" />
      <stop
         offset="0.251852"
         stop-color="#5BBF80"
         id="stop987-7" />
      <stop
         offset="0.259259"
         stop-color="#5BBF81"
         id="stop989-3" />
      <stop
         offset="0.266667"
         stop-color="#5ABF82"
         id="stop991-8" />
      <stop
         offset="0.274074"
         stop-color="#5ABF84"
         id="stop993-2" />
      <stop
         offset="0.281481"
         stop-color="#59BF85"
         id="stop995-6" />
      <stop
         offset="0.288889"
         stop-color="#59BF87"
         id="stop997-8" />
      <stop
         offset="0.296296"
         stop-color="#58BF88"
         id="stop999-9" />
      <stop
         offset="0.303704"
         stop-color="#58BE8A"
         id="stop1001-5" />
      <stop
         offset="0.311111"
         stop-color="#57BE8B"
         id="stop1003-2" />
      <stop
         offset="0.318519"
         stop-color="#57BE8C"
         id="stop1005-7" />
      <stop
         offset="0.325926"
         stop-color="#56BE8E"
         id="stop1007-3" />
      <stop
         offset="0.333333"
         stop-color="#56BE8F"
         id="stop1009-3" />
      <stop
         offset="0.340741"
         stop-color="#55BE90"
         id="stop1011-7" />
      <stop
         offset="0.348148"
         stop-color="#55BD92"
         id="stop1013-6" />
      <stop
         offset="0.355556"
         stop-color="#54BD93"
         id="stop1015-4" />
      <stop
         offset="0.362963"
         stop-color="#54BD94"
         id="stop1017-6" />
      <stop
         offset="0.37037"
         stop-color="#53BD95"
         id="stop1019-9" />
      <stop
         offset="0.377778"
         stop-color="#53BD97"
         id="stop1021-1" />
      <stop
         offset="0.385185"
         stop-color="#52BD98"
         id="stop1023-0" />
      <stop
         offset="0.392593"
         stop-color="#51BC99"
         id="stop1025-1" />
      <stop
         offset="0.4"
         stop-color="#51BC9A"
         id="stop1027-8" />
      <stop
         offset="0.407407"
         stop-color="#50BC9C"
         id="stop1029-9" />
      <stop
         offset="0.414815"
         stop-color="#4FBC9D"
         id="stop1031-2" />
      <stop
         offset="0.422222"
         stop-color="#4FBC9E"
         id="stop1033-0" />
      <stop
         offset="0.42963"
         stop-color="#4EBC9F"
         id="stop1035-2" />
      <stop
         offset="0.437037"
         stop-color="#4EBBA0"
         id="stop1037-6" />
      <stop
         offset="0.444444"
         stop-color="#4DBBA1"
         id="stop1039-6" />
      <stop
         offset="0.451852"
         stop-color="#4CBBA2"
         id="stop1041-2" />
      <stop
         offset="0.459259"
         stop-color="#4BBBA4"
         id="stop1043-6" />
      <stop
         offset="0.466667"
         stop-color="#4BBBA5"
         id="stop1045-1" />
      <stop
         offset="0.474074"
         stop-color="#4ABAA6"
         id="stop1047-6" />
      <stop
         offset="0.481481"
         stop-color="#49BAA7"
         id="stop1049-1" />
      <stop
         offset="0.488889"
         stop-color="#49BAA8"
         id="stop1051-6" />
      <stop
         offset="0.496296"
         stop-color="#48BAA9"
         id="stop1053-1" />
      <stop
         offset="0.503704"
         stop-color="#47B9AA"
         id="stop1055-6" />
      <stop
         offset="0.511111"
         stop-color="#46B9AB"
         id="stop1057-9" />
      <stop
         offset="0.518519"
         stop-color="#46B9AC"
         id="stop1059-7" />
      <stop
         offset="0.525926"
         stop-color="#45B9AD"
         id="stop1061-7" />
      <stop
         offset="0.533333"
         stop-color="#44B9AE"
         id="stop1063-3" />
      <stop
         offset="0.540741"
         stop-color="#43B8AF"
         id="stop1065-9" />
      <stop
         offset="0.548148"
         stop-color="#42B8B0"
         id="stop1067-8" />
      <stop
         offset="0.555556"
         stop-color="#42B8B1"
         id="stop1069-9" />
      <stop
         offset="0.562963"
         stop-color="#41B8B2"
         id="stop1071-1" />
      <stop
         offset="0.57037"
         stop-color="#40B7B3"
         id="stop1073-3" />
      <stop
         offset="0.577778"
         stop-color="#3FB7B3"
         id="stop1075-3" />
      <stop
         offset="0.585185"
         stop-color="#3EB7B4"
         id="stop1077-9" />
      <stop
         offset="0.592593"
         stop-color="#3DB7B5"
         id="stop1079-8" />
      <stop
         offset="0.6"
         stop-color="#3DB6B6"
         id="stop1081-4" />
      <stop
         offset="0.607407"
         stop-color="#3CB6B7"
         id="stop1083-5" />
      <stop
         offset="0.614815"
         stop-color="#3BB6B8"
         id="stop1085-2" />
      <stop
         offset="0.622222"
         stop-color="#3AB6B9"
         id="stop1087-2" />
      <stop
         offset="0.62963"
         stop-color="#39B5B9"
         id="stop1089-5" />
      <stop
         offset="0.637037"
         stop-color="#38B5BA"
         id="stop1091-6" />
      <stop
         offset="0.644444"
         stop-color="#37B5BB"
         id="stop1093-8" />
      <stop
         offset="0.651852"
         stop-color="#36B5BC"
         id="stop1095-0" />
      <stop
         offset="0.659259"
         stop-color="#35B4BC"
         id="stop1097-5" />
      <stop
         offset="0.666667"
         stop-color="#34B4BD"
         id="stop1099-3" />
      <stop
         offset="0.674074"
         stop-color="#33B4BE"
         id="stop1101-1" />
      <stop
         offset="0.681481"
         stop-color="#32B3BF"
         id="stop1103-6" />
      <stop
         offset="0.688889"
         stop-color="#31B3BF"
         id="stop1105-9" />
      <stop
         offset="0.696296"
         stop-color="#30B3C0"
         id="stop1107-4" />
      <stop
         offset="0.703704"
         stop-color="#2FB2C1"
         id="stop1109-2" />
      <stop
         offset="0.711111"
         stop-color="#2EB2C1"
         id="stop1111-9" />
      <stop
         offset="0.718518"
         stop-color="#2DB2C2"
         id="stop1113-6" />
      <stop
         offset="0.725926"
         stop-color="#2CB2C2"
         id="stop1115-7" />
      <stop
         offset="0.733333"
         stop-color="#2BB1C3"
         id="stop1117-6" />
      <stop
         offset="0.740741"
         stop-color="#2AB1C4"
         id="stop1119-8" />
      <stop
         offset="0.748148"
         stop-color="#29B1C4"
         id="stop1121-3" />
      <stop
         offset="0.755556"
         stop-color="#28B0C5"
         id="stop1123-1" />
      <stop
         offset="0.762963"
         stop-color="#27B0C5"
         id="stop1125-9" />
      <stop
         offset="0.77037"
         stop-color="#26B0C6"
         id="stop1127-5" />
      <stop
         offset="0.777778"
         stop-color="#25AFC6"
         id="stop1129-2" />
      <stop
         offset="0.785185"
         stop-color="#24AFC7"
         id="stop1131-2" />
      <stop
         offset="0.792593"
         stop-color="#22AFC7"
         id="stop1133-4" />
      <stop
         offset="0.8"
         stop-color="#21AEC8"
         id="stop1135-1" />
      <stop
         offset="0.807407"
         stop-color="#20AEC8"
         id="stop1137-9" />
      <stop
         offset="0.814815"
         stop-color="#1FAEC9"
         id="stop1139-9" />
      <stop
         offset="0.822222"
         stop-color="#1EADC9"
         id="stop1141-7" />
      <stop
         offset="0.82963"
         stop-color="#1DADCA"
         id="stop1143-2" />
      <stop
         offset="0.837037"
         stop-color="#1CADCA"
         id="stop1145-6" />
      <stop
         offset="0.844444"
         stop-color="#1AACCA"
         id="stop1147-0" />
      <stop
         offset="0.851852"
         stop-color="#19ACCB"
         id="stop1149-3" />
      <stop
         offset="0.859259"
         stop-color="#18ACCB"
         id="stop1151-5" />
      <stop
         offset="0.866667"
         stop-color="#17ABCB"
         id="stop1153-3" />
      <stop
         offset="0.874074"
         stop-color="#16ABCC"
         id="stop1155-8" />
      <stop
         offset="0.881481"
         stop-color="#14ABCC"
         id="stop1157-5" />
      <stop
         offset="0.888889"
         stop-color="#13AACC"
         id="stop1159-9" />
      <stop
         offset="0.896296"
         stop-color="#12AACD"
         id="stop1161-9" />
      <stop
         offset="0.903704"
         stop-color="#11AACD"
         id="stop1163-5" />
      <stop
         offset="0.911111"
         stop-color="#0FA9CD"
         id="stop1165-6" />
      <stop
         offset="0.918519"
         stop-color="#0EA9CD"
         id="stop1167-8" />
      <stop
         offset="0.925926"
         stop-color="#0DA8CD"
         id="stop1169-9" />
      <stop
         offset="0.933333"
         stop-color="#0CA8CE"
         id="stop1171-0" />
      <stop
         offset="0.940741"
         stop-color="#0AA8CE"
         id="stop1173-4" />
      <stop
         offset="0.948148"
         stop-color="#09A7CE"
         id="stop1175-8" />
      <stop
         offset="0.955556"
         stop-color="#08A7CE"
         id="stop1177-0" />
      <stop
         offset="0.962963"
         stop-color="#06A6CE"
         id="stop1179-4" />
      <stop
         offset="0.97037"
         stop-color="#05A6CE"
         id="stop1181-4" />
      <stop
         offset="0.977778"
         stop-color="#04A6CE"
         id="stop1183-5" />
      <stop
         offset="0.985185"
         stop-color="#02A5CE"
         id="stop1185-8" />
      <stop
         offset="0.992593"
         stop-color="#01A5CE"
         id="stop1187-2" />
      <stop
         offset="1"
         stop-color="#00A5CF"
         id="stop1189-7" />
    </linearGradient>
    <clipPath
       id="clip0-9-5">
      <rect
         x="555"
         y="49"
         width="192"
         height="66"
         id="rect1891-5" />
    </clipPath>
    <clipPath
       id="clip0-6-4">
      <rect
         x="392"
         y="111"
         width="188"
         height="51"
         id="rect2014-2" />
    </clipPath>
  </defs>
  <g
     id="layer1">
    <g
       id="g1656"
       transform="translate(215.87004,2.85921)">
      <g
         clip-path="url(#clip0-7)"
         transform="matrix(0.73973282,0,0,0.80366271,-619.72875,-158.53958)"
         id="g1196">
        <path
           d="m 553.5,238.478 h 20.896 l 11.813,-8.905 21.801,13.927 19.346,-21.936 17.158,17.939 18.777,-15.339 L 692.5,204.5"
           stroke="url(#stroke1)"
           stroke-width="10.6667"
           stroke-miterlimit="8"
           fill="none"
           fill-rule="evenodd"
           id="path1194"
           style="stroke:url(#stroke1)" />
      </g>
      <g
         clip-path="url(#clip0-9)"
         transform="matrix(0.74286241,0,0,0.76179308,-638.19643,-3.1795664)"
         id="g1898"
         style="fill:#483737">
        <g
           aria-label="Ecohealth"
           transform="translate(573.733,89)"
           id="text1896"
           style="font-weight:700;font-size:30px;font-family:'Century Gothic', 'Century Gothic_MSFontService', sans-serif">
          <path
             d="M 2.4755859,-21.547852 H 14.238281 v 4.013672 H 6.5478516 v 3.896485 h 7.6904294 v 3.9404294 H 6.5478516 v 5.6689453 H 14.238281 V 0 H 2.4755859 Z"
             id="path1119" />
          <path
             d="m 33.222656,-12.714844 -3.325195,1.831055 q -0.9375,-0.981445 -1.860352,-1.362305 -0.908203,-0.380859 -2.138672,-0.380859 -2.24121,0 -3.632812,1.347656 -1.376953,1.3330079 -1.376953,3.4277345 0,2.0361328 1.333008,3.3251953 1.333007,1.2890625 3.500976,1.2890625 2.680664,0 4.174805,-1.8310547 l 3.149414,2.1533203 q -2.563477,3.32519535 -7.236328,3.32519535 -4.204102,0 -6.591797,-2.49023435 -2.373047,-2.4902344 -2.373047,-5.8300781 0,-2.3144528 1.157227,-4.2626958 1.157226,-1.948242 3.222656,-3.061523 2.080078,-1.113281 4.643555,-1.113281 2.373046,0 4.262695,0.952148 1.889648,0.9375 3.09082,2.680664 z"
             id="path1121" />
          <path
             d="m 44.311523,-16.347656 q 2.25586,0 4.233399,1.127929 1.992187,1.12793 3.105469,3.061524 1.113281,1.933594 1.113281,4.1748046 0,2.2558593 -1.12793,4.21875 -1.113281,1.9628906 -3.046875,3.07617184 -1.933594,1.09863281 -4.262695,1.09863281 -3.427735,0 -5.859375,-2.43164065 -2.416992,-2.446289 -2.416992,-5.9326172 0,-3.7353514 2.739257,-6.2255864 2.402344,-2.167968 5.522461,-2.167968 z m 0.05859,3.764648 q -1.860351,0 -3.105469,1.303711 -1.230468,1.2890626 -1.230468,3.310547 0,2.0800781 1.21582,3.3691406 1.230469,1.2890625 3.105469,1.2890625 1.875,0 3.120117,-1.3037109 1.245117,-1.3037109 1.245117,-3.3544922 0,-2.050781 -1.230469,-3.325195 -1.21582,-1.289063 -3.120117,-1.289063 z"
             id="path1123" />
          <path
             d="m 56.044922,-22.089844 h 3.969726 v 7.763672 q 1.171875,-1.010742 2.358399,-1.508789 1.186523,-0.512695 2.402344,-0.512695 2.373046,0 3.999023,1.640625 1.391602,1.420898 1.391602,4.174804 V 0 h -3.94043 v -6.9873047 q 0,-2.7685547 -0.263672,-3.7500003 -0.263672,-0.981445 -0.908203,-1.464843 -0.629883,-0.483399 -1.567383,-0.483399 -1.21582,0 -2.094726,0.805664 -0.864258,0.805664 -1.201172,2.1972658 -0.175782,0.7177734 -0.175782,3.28125 V 0 h -3.969726 z"
             id="path1125" />
          <path
             d="M 90,-6.8115234 H 77.15332 q 0.278321,1.6992187 1.479492,2.7099609 1.215821,0.9960937 3.090821,0.9960937 2.241211,0 3.852539,-1.5673828 l 3.36914,1.5820313 q -1.259765,1.7871094 -3.017578,2.65136717 -1.757812,0.84960938 -4.174804,0.84960938 -3.75,0 -6.108399,-2.35839845 -2.358398,-2.3730469 -2.358398,-5.9326172 0,-3.6474606 2.34375,-6.0498046 2.358398,-2.416992 5.90332,-2.416992 3.764649,0 6.123047,2.416992 2.358398,2.402344 2.358398,6.3574218 z m -4.013672,-3.1494141 q -0.395508,-1.3330075 -1.567383,-2.1679685 -1.157226,-0.834961 -2.695312,-0.834961 -1.669922,0 -2.929688,0.9375 -0.791015,0.585937 -1.464843,2.0654295 z"
             id="path1127" />
          <path
             d="m 105.01465,-15.9375 h 3.98437 V 0 h -3.98437 v -1.6845703 q -1.17188,1.11328124 -2.3584,1.61132811 -1.17187,0.48339844 -2.54883,0.48339844 -3.090818,0 -5.346678,-2.38769535 -2.255859,-2.4023437 -2.255859,-5.961914 0,-3.6914059 2.182617,-6.0498049 2.182617,-2.358398 5.302734,-2.358398 1.435546,0 2.695316,0.541992 1.25976,0.541992 2.3291,1.625976 z m -4.2041,3.28125 q -1.860355,0 -3.090823,1.318359 -1.230469,1.303711 -1.230469,3.3544926 0,2.0654297 1.245117,3.3984375 1.259766,1.3330078 3.090825,1.3330078 1.88964,0 3.13476,-1.303711 1.24512,-1.3183593 1.24512,-3.4423828 0,-2.0800781 -1.24512,-3.3691411 -1.24512,-1.289062 -3.14941,-1.289062 z"
             id="path1129" />
          <path
             d="m 112.61719,-22.089844 h 3.99902 V 0 h -3.99902 z"
             id="path1131" />
          <path
             d="m 120.71777,-21.811523 h 3.98438 v 5.874023 h 2.37305 v 3.442383 h -2.37305 V 0 h -3.98438 v -12.495117 h -2.05078 V -15.9375 h 2.05078 z"
             id="path1133" />
          <path
             d="m 129.24316,-22.089844 h 3.96973 v 7.763672 q 1.17188,-1.010742 2.3584,-1.508789 1.18652,-0.512695 2.40234,-0.512695 2.37305,0 3.99903,1.640625 1.3916,1.420898 1.3916,4.174804 V 0 h -3.94043 v -6.9873047 q 0,-2.7685547 -0.26367,-3.7500003 -0.26368,-0.981445 -0.90821,-1.464843 -0.62988,-0.483399 -1.56738,-0.483399 -1.21582,0 -2.09473,0.805664 -0.86425,0.805664 -1.20117,2.1972658 -0.17578,0.7177734 -0.17578,3.28125 V 0 h -3.96973 z"
             id="path1135" />
        </g>
      </g>
      <g
         clip-path="url(#clip0-6)"
         transform="matrix(0.73518518,0,0,0.67052265,-509.82848,-13.62623)"
         id="g2021"
         style="fill:#483737">
        <g
           aria-label="Tracking Tool"
           transform="translate(407.267,142)"
           id="text2019"
           style="font-size:23px;font-family:'Century Gothic', 'Century Gothic_MSFontService', sans-serif">
          <path
             d="M 0.37060547,-14.914063 V -16.52002 H 9.4335938 v 1.605957 H 5.75 V 0 H 4.0654297 v -14.914063 z"
             id="path1156" />
          <path
             d="m 10.949707,-12.21875 h 1.605957 v 1.785645 q 0.71875,-1.055665 1.516113,-1.572266 0.797364,-0.527832 1.66211,-0.527832 0.651367,0 1.392578,0.415527 l -0.819824,1.325196 q -0.494141,-0.213379 -0.831055,-0.213379 -0.786133,0 -1.516113,0.651367 -0.729981,0.6401365 -1.111817,1.9990232 -0.291992,1.0444336 -0.291992,4.2226563 V 0 h -1.605957 z"
             id="path1158" />
          <path
             d="M 30.636719,-12.21875 V 0 h -1.549805 v -2.1000977 q -0.988281,1.2016602 -2.223633,1.80810551 -1.224121,0.60644532 -2.684082,0.60644532 -2.594238,0 -4.436035,-1.87548833 -1.830566,-1.8867187 -1.830566,-4.5820312 0,-2.6391602 1.853027,-4.5146486 1.853027,-1.875488 4.458496,-1.875488 1.504883,0 2.717774,0.640137 1.224121,0.640136 2.145019,1.9204097 V -12.21875 Z m -6.289063,1.20166 q -1.313965,0 -2.425781,0.651367 -1.111816,0.6401371 -1.774414,1.8081058 -0.651367,1.1679688 -0.651367,2.4707031 0,1.2915039 0.662597,2.4707032 0.662598,1.1791992 1.774414,1.8417968 1.123047,0.6513672 2.403321,0.6513672 1.291504,0 2.448242,-0.6513672 1.156738,-0.6513672 1.774414,-1.7631836 0.628906,-1.1118164 0.628906,-2.5043945 0,-2.1225586 -1.403808,-3.5488281 -1.392578,-1.4262697 -3.436524,-1.4262697 z"
             id="path1160" />
          <path
             d="m 46.033691,-9.6806641 -1.246582,0.7749024 q -1.617187,-2.1450193 -4.413574,-2.1450193 -2.234863,0 -3.717285,1.4374997 -1.471191,1.4375 -1.471191,3.4926758 0,1.3364258 0.673828,2.515625 0.685058,1.1791992 1.864258,1.8305664 1.190429,0.6513672 2.661621,0.6513672 2.695312,0 4.402343,-2.1450195 l 1.246582,0.8198242 q -0.875976,1.3139649 -2.358398,2.04394532 -1.471191,0.71875001 -3.35791,0.71875001 -2.897461,0 -4.806641,-1.84179683 -1.90918,-1.8417969 -1.90918,-4.4809571 0,-1.774414 0.887208,-3.2905273 0.898437,-1.5273439 2.459472,-2.3808599 1.561035,-0.853515 3.492676,-0.853515 1.212891,0 2.335937,0.370605 1.134278,0.370606 1.920411,0.965821 0.786132,0.595214 1.336425,1.5161129 z"
             id="path1162" />
          <path
             d="m 49.043457,-16.935547 h 1.583496 v 9.6357423 l 5.648926,-4.9189453 h 2.313476 L 51.884766,-6.3901367 58.982422,0 H 56.758789 L 50.626953,-5.4916992 V 0 h -1.583496 z"
             id="path1164" />
          <path
             d="m 61.149902,-17.25 q 0.539063,0 0.920899,0.381836 0.381836,0.381836 0.381836,0.920898 0,0.527832 -0.381836,0.909668 -0.381836,0.381836 -0.920899,0.381836 -0.527832,0 -0.909668,-0.381836 -0.381836,-0.381836 -0.381836,-0.909668 0,-0.539062 0.381836,-0.920898 Q 60.62207,-17.25 61.149902,-17.25 Z m -0.786132,5.03125 h 1.583496 V 0 H 60.36377 Z"
             id="path1166" />
          <path
             d="m 65.204102,-12.21875 h 1.572265 v 2.189941 q 0.94336,-1.257812 2.088867,-1.875488 1.145508,-0.628906 2.493164,-0.628906 1.370118,0 2.425782,0.696289 1.066894,0.696289 1.572265,1.8754882 0.505371,1.1791992 0.505371,3.6723633 V 0 h -1.561035 v -5.8286133 q 0,-2.1113281 -0.179687,-2.8188476 -0.280762,-1.2128907 -1.055664,-1.8193361 -0.774903,-0.617676 -2.021485,-0.617676 -1.426269,0 -2.560547,0.94336 -1.123046,0.9433591 -1.482421,2.3359372 -0.22461,0.909668 -0.22461,3.3242188 V 0 h -1.572265 z"
             id="path1168" />
          <path
             d="m 89.753906,-12.21875 h 1.583496 v 9.7368164 q 0,2.57177735 -0.449218,3.762207 -0.617676,1.6845704 -2.14502,2.5942383 -1.527344,0.909668 -3.672363,0.909668 -1.572266,0 -2.830078,-0.4492188 Q 80.994141,3.8969727 80.208008,3.1445313 79.421875,2.4033203 78.759277,0.96582031 h 1.707032 q 0.696289,1.21289059 1.796875,1.79687499 1.100586,0.5839844 2.729003,0.5839844 1.605958,0 2.706543,-0.6064453 1.111817,-0.5952149 1.583497,-1.5048828 0.471679,-0.90966801 0.471679,-2.9311524 V -2.324707 q -0.887207,1.1230468 -2.16748,1.72949216 Q 86.306152,0 84.868652,0 83.184082,0 81.70166,-0.83105469 80.219238,-1.6733398 79.410645,-3.0883789 78.602051,-4.503418 78.602051,-6.1992187 q 0,-1.6958008 0.842285,-3.1557618 0.842285,-1.4711915 2.324707,-2.3247075 1.493652,-0.853515 3.144531,-0.853515 1.370117,0 2.549317,0.572754 1.190429,0.561523 2.291015,1.864258 z m -4.638183,1.20166 q -1.336426,0 -2.481934,0.651367 -1.145508,0.6401371 -1.796875,1.7856449 -0.651367,1.1342773 -0.651367,2.4594726 0,2.0102539 1.347656,3.3242188 1.347656,1.3139648 3.492676,1.3139648 2.16748,0 3.481445,-1.3027344 1.325196,-1.3027343 1.325196,-3.4252929 0,-1.3813477 -0.606446,-2.4594727 -0.606445,-1.0893554 -1.718262,-1.7182621 -1.111816,-0.628906 -2.392089,-0.628906 z"
             id="path1170" />
          <path
             d="m 99.692871,-14.914063 v -1.605957 h 9.062989 v 1.605957 h -3.68359 V 0 h -1.68457 v -14.914063 z"
             id="path1172" />
          <path
             d="m 116.65088,-12.533203 q 2.81885,0 4.67187,2.043945 1.68457,1.864258 1.68457,4.4135744 0,2.5605469 -1.78564,4.480957 -1.77441,1.90917973 -4.5708,1.90917973 -2.80762,0 -4.59326,-1.90917973 -1.77442,-1.9204101 -1.77442,-4.480957 0,-2.5380859 1.68457,-4.4023434 1.85303,-2.055176 4.68311,-2.055176 z m 0,1.538574 q -1.9541,0 -3.35791,1.4487306 -1.40381,1.4487304 -1.40381,3.5039062 0,1.3251953 0.64014,2.4707031 0.64013,1.1455078 1.72949,1.7744141 1.08935,0.6176758 2.39209,0.6176758 1.30273,0 2.39209,-0.6176758 1.08935,-0.6289063 1.72949,-1.7744141 0.64014,-1.1455078 0.64014,-2.4707031 0,-2.0551758 -1.41504,-3.5039062 -1.40381,-1.4487306 -3.34668,-1.4487306 z"
             id="path1174" />
          <path
             d="m 131.71094,-12.533203 q 2.81885,0 4.67187,2.043945 1.68457,1.864258 1.68457,4.4135744 0,2.5605469 -1.78564,4.480957 -1.77442,1.90917973 -4.5708,1.90917973 -2.80762,0 -4.59326,-1.90917973 -1.77442,-1.9204101 -1.77442,-4.480957 0,-2.5380859 1.68457,-4.4023434 1.85303,-2.055176 4.68311,-2.055176 z m 0,1.538574 q -1.9541,0 -3.35791,1.4487306 -1.40381,1.4487304 -1.40381,3.5039062 0,1.3251953 0.64014,2.4707031 0.64013,1.1455078 1.72949,1.7744141 1.08935,0.6176758 2.39209,0.6176758 1.30273,0 2.39209,-0.6176758 1.08935,-0.6289063 1.72949,-1.7744141 0.64014,-1.1455078 0.64014,-2.4707031 0,-2.0551758 -1.41504,-3.5039062 -1.40381,-1.4487306 -3.34668,-1.4487306 z"
             id="path1176" />
          <path
             d="m 140.75146,-16.935547 h 1.57227 V 0 h -1.57227 z"
             id="path1178" />
        </g>
      </g>
    </g>
  </g>
  <metadata
     id="metadata1343">
    <rdf:RDF>
      <cc:Work
         rdf:about="">
        <dc:title>ETT logo</dc:title>
      </cc:Work>
    </rdf:RDF>
  </metadata>
</svg>
