<svg xmlns="http://www.w3.org/2000/svg" xmlns:xlink="http://www.w3.org/1999/xlink" width="1776.377" height="541.084" viewBox="0 0 1776.377 541.084">
  <defs>
    <clipPath id="clip-path">
      <rect id="Rectangle_1" data-name="Rectangle 1" width="1776.377" height="541.084" fill="none"/>
    </clipPath>
  </defs>
  <g id="Group_3" data-name="Group 3" transform="translate(0 -0.001)">
    <path id="Path_1" data-name="Path 1" d="M89.157,39.378h48.564L154.5,107.041l2.858,32.317,2.852-32.317L178.6,39.378h49.814V155.6H193.239v-52.49l3.575-51.234-7.143,36.6L172,155.6H138.965L122.008,88.834,115.757,51.88l2.858,51.592V155.6H89.157Z" transform="translate(451.931 199.603)" fill="#1750ac"/>
    <g id="Group_2" data-name="Group 2" transform="translate(0 0.001)">
      <g id="Group_1" data-name="Group 1" clip-path="url(#clip-path)">
        <path id="Path_2" data-name="Path 2" d="M145.559,142.148a50.32,50.32,0,0,1-11.695-1.341,28.232,28.232,0,0,1-10-4.461,22.311,22.311,0,0,1-6.967-8.217,28.026,28.026,0,0,1-2.585-12.763,35.852,35.852,0,0,1,2.227-13.388,22.193,22.193,0,0,1,7.228-9.37,37.893,37.893,0,0,1,12.951-6.069,120.856,120.856,0,0,1,19.19-3.484l11.962-1.25V78.77a25.159,25.159,0,0,0-.54-5.8,6.444,6.444,0,0,0-1.96-3.484,8,8,0,0,0-3.927-1.693,36.481,36.481,0,0,0-6.251-.449,65.027,65.027,0,0,0-6.779.358q-3.4.355-7.052,1.068t-7.859,1.875q-4.2,1.165-9.37,2.591l-5.177-21.423A117.978,117.978,0,0,1,137.433,45.2a85.29,85.29,0,0,1,22.231-2.676,63.318,63.318,0,0,1,18.3,2.318,27.807,27.807,0,0,1,12.5,7.592A31.479,31.479,0,0,1,197.6,66.183a83.013,83.013,0,0,1,2.233,20.8V117.69c0,2.5.382,4.1,1.159,4.819a5.561,5.561,0,0,0,3.835,1.074h4.109l1.074,13.388a25.905,25.905,0,0,1-6.7,3.393,34.193,34.193,0,0,1-11.513,1.6,41.6,41.6,0,0,1-13.746-1.96l-7.677-12.678-5.717,10.712a32.435,32.435,0,0,1-7.944,3.041,48.35,48.35,0,0,1-11.155,1.068m9.637-19.105a21.251,21.251,0,0,0,7.944-1.159,18.923,18.923,0,0,0,4.734-2.767V98.585l-10,1.426a55.787,55.787,0,0,0-6.6,1.25,12.164,12.164,0,0,0-4.376,2.051,7.351,7.351,0,0,0-2.409,3.393,16.241,16.241,0,0,0-.71,5.268v.534q0,6.436,2.676,8.484t8.745,2.051" transform="translate(579.463 215.559)" fill="#1750ac"/>
        <path id="Path_3" data-name="Path 3" d="M169.873,142.148q-14.283,0-22.941-1.693a70,70,0,0,1-14.371-4.2l3.927-19.633q4.825,1.429,11.6,3.034a67.034,67.034,0,0,0,15.354,1.6q10,0,13.928-1.244T181.3,114.3a7.789,7.789,0,0,0-.716-3.66,5.127,5.127,0,0,0-3.034-2.142,39.046,39.046,0,0,0-6.694-1.432q-4.379-.619-11.695-1.517a56.732,56.732,0,0,1-11.786-2.761,22.328,22.328,0,0,1-14.189-14.462A40.5,40.5,0,0,1,131.311,75.2a35.379,35.379,0,0,1,2.858-14.82A25.83,25.83,0,0,1,142.29,50.2a35.552,35.552,0,0,1,12.678-5.8,67.319,67.319,0,0,1,16.514-1.875,95.418,95.418,0,0,1,20.264,1.784,70.761,70.761,0,0,1,13.121,4.109L200.048,68.95q-5.18-1.247-11.07-2.409a69.422,69.422,0,0,0-13.388-1.165q-9.113,0-13.127,1.074t-4.012,5.893a6.614,6.614,0,0,0,.8,3.569,5.082,5.082,0,0,0,3.125,1.875,44.627,44.627,0,0,0,6.785,1.074q4.452.446,11.6,1.335a59.983,59.983,0,0,1,11.513,2.409,27.166,27.166,0,0,1,9.195,5,21.449,21.449,0,0,1,6.069,8.745,36.96,36.96,0,0,1,2.142,13.485,36.6,36.6,0,0,1-2.318,13.3,25.157,25.157,0,0,1-7.228,10.178,34.65,34.65,0,0,1-12.411,6.518,60.767,60.767,0,0,1-17.855,2.318" transform="translate(665.61 215.559)" fill="#1750ac"/>
        <path id="Path_4" data-name="Path 4" d="M184.091,142.148q-14.283,0-22.941-1.693a70,70,0,0,1-14.371-4.2l3.927-19.633q4.825,1.429,11.6,3.034a67.035,67.035,0,0,0,15.354,1.6q10,0,13.928-1.244t3.927-5.717a7.79,7.79,0,0,0-.716-3.66,5.127,5.127,0,0,0-3.035-2.142,39.046,39.046,0,0,0-6.694-1.432q-4.379-.619-11.695-1.517a56.733,56.733,0,0,1-11.786-2.761A22.328,22.328,0,0,1,147.4,88.322,40.5,40.5,0,0,1,145.529,75.2a35.379,35.379,0,0,1,2.858-14.82,25.829,25.829,0,0,1,8.12-10.178,35.552,35.552,0,0,1,12.678-5.8A67.319,67.319,0,0,1,185.7,42.526a95.418,95.418,0,0,1,20.264,1.784,70.761,70.761,0,0,1,13.121,4.109L214.266,68.95q-5.18-1.247-11.07-2.409a69.421,69.421,0,0,0-13.388-1.165q-9.113,0-13.127,1.074t-4.012,5.893a6.614,6.614,0,0,0,.8,3.569,5.082,5.082,0,0,0,3.126,1.875,44.623,44.623,0,0,0,6.785,1.074q4.452.446,11.6,1.335A59.982,59.982,0,0,1,206.5,82.605a27.165,27.165,0,0,1,9.194,5,21.449,21.449,0,0,1,6.069,8.745,36.958,36.958,0,0,1,2.142,13.485,36.6,36.6,0,0,1-2.318,13.3,25.157,25.157,0,0,1-7.228,10.178,34.65,34.65,0,0,1-12.411,6.518,60.767,60.767,0,0,1-17.855,2.318" transform="translate(737.68 215.559)" fill="#1750ac"/>
        <path id="Path_5" data-name="Path 5" d="M191.04,142.148a50.32,50.32,0,0,1-11.695-1.341,28.231,28.231,0,0,1-10-4.461,22.31,22.31,0,0,1-6.967-8.217,28.025,28.025,0,0,1-2.585-12.763,35.852,35.852,0,0,1,2.227-13.388,22.193,22.193,0,0,1,7.228-9.37A37.9,37.9,0,0,1,182.2,86.538a120.858,120.858,0,0,1,19.19-3.484l11.962-1.25V78.77a25.159,25.159,0,0,0-.54-5.8,6.445,6.445,0,0,0-1.96-3.484,8,8,0,0,0-3.927-1.693,36.482,36.482,0,0,0-6.251-.449,65.024,65.024,0,0,0-6.779.358q-3.4.355-7.052,1.068t-7.859,1.875q-4.2,1.165-9.371,2.591L164.44,51.811A117.978,117.978,0,0,1,182.914,45.2a85.291,85.291,0,0,1,22.231-2.676,63.317,63.317,0,0,1,18.3,2.318,27.807,27.807,0,0,1,12.5,7.592,31.479,31.479,0,0,1,7.143,13.746,83.013,83.013,0,0,1,2.233,20.8V117.69c0,2.5.382,4.1,1.159,4.819a5.561,5.561,0,0,0,3.836,1.074h4.109l1.074,13.388a25.905,25.905,0,0,1-6.7,3.393,34.192,34.192,0,0,1-11.513,1.6,41.6,41.6,0,0,1-13.746-1.96l-7.677-12.678-5.717,10.712a32.436,32.436,0,0,1-7.944,3.041,48.35,48.35,0,0,1-11.155,1.068m9.637-19.105a21.25,21.25,0,0,0,7.944-1.159,18.924,18.924,0,0,0,4.734-2.767V98.585l-10,1.426a55.783,55.783,0,0,0-6.6,1.25,12.164,12.164,0,0,0-4.376,2.051,7.351,7.351,0,0,0-2.409,3.393,16.239,16.239,0,0,0-.71,5.268v.534q0,6.436,2.676,8.484t8.745,2.051" transform="translate(810.004 215.559)" fill="#1750ac"/>
        <path id="Path_6" data-name="Path 6" d="M224.054,142.148q-23.387,0-35.619-12.945T176.206,92.34q0-24.106,12.229-36.96t35.619-12.854a76.612,76.612,0,0,1,17.673,1.693,84.757,84.757,0,0,1,12.144,3.842L249.4,70.917q-5.353-1.611-10.445-2.682a56.436,56.436,0,0,0-11.513-1.068,36.891,36.891,0,0,0-7.768.716,10.079,10.079,0,0,0-5.444,3.034,15,15,0,0,0-3.216,6.785,53.5,53.5,0,0,0-1.068,11.956v4.109a61.071,61.071,0,0,0,1.068,12.587,19.087,19.087,0,0,0,3.216,7.677,11.057,11.057,0,0,0,5.444,3.842,24.741,24.741,0,0,0,7.592,1.068,44.8,44.8,0,0,0,12.939-1.608q5.271-1.6,10.087-3.393l4.109,21.247a77.04,77.04,0,0,1-11.695,4.728q-6.873,2.23-18.656,2.233" transform="translate(893.18 215.559)" fill="#1750ac"/>
        <path id="Path_7" data-name="Path 7" d="M191.1,36.819H223.59V90.2l9.285-14.1a85.756,85.756,0,0,1,8.66-3.126,35.71,35.71,0,0,1,10.621-1.517q29.814,0,29.817,36.778v60.344H249.48v-63.2q0-6.245-2.683-8.035c-1.784-1.183-4.4-1.784-7.853-1.784a26.056,26.056,0,0,0-8.478,1.159,46.354,46.354,0,0,0-6.876,3.125v68.737H191.1Z" transform="translate(968.662 186.631)" fill="#1750ac"/>
        <path id="Path_8" data-name="Path 8" d="M238.576,140q-15,0-22.583-8.569t-7.586-28.209V42.879h32.487v64.628q0,5.717,2.683,7.677t8.029,1.966a25.266,25.266,0,0,0,8.3-1.165,42.959,42.959,0,0,0,7.052-3.3V42.879h32.5v94.979h-23.4l-8.569-16.423L257.323,135.9a39.45,39.45,0,0,1-8.478,2.943A44.714,44.714,0,0,1,238.576,140" transform="translate(1056.406 217.349)" fill="#1750ac"/>
        <path id="Path_9" data-name="Path 9" d="M264.111,142.148q-14.283,0-22.941-1.693a70,70,0,0,1-14.371-4.2l3.926-19.633q4.825,1.429,11.6,3.034a67.036,67.036,0,0,0,15.354,1.6q10,0,13.928-1.244t3.927-5.717a7.792,7.792,0,0,0-.716-3.66,5.128,5.128,0,0,0-3.035-2.142,39.045,39.045,0,0,0-6.694-1.432q-4.379-.619-11.695-1.517a56.732,56.732,0,0,1-11.786-2.761,22.328,22.328,0,0,1-14.189-14.462A40.5,40.5,0,0,1,225.549,75.2a35.378,35.378,0,0,1,2.859-14.82,25.829,25.829,0,0,1,8.12-10.178,35.551,35.551,0,0,1,12.678-5.8,67.318,67.318,0,0,1,16.514-1.875,95.418,95.418,0,0,1,20.264,1.784A70.759,70.759,0,0,1,299.1,48.419L294.286,68.95q-5.18-1.247-11.07-2.409a69.42,69.42,0,0,0-13.388-1.165q-9.113,0-13.127,1.074t-4.012,5.893a6.614,6.614,0,0,0,.8,3.569,5.082,5.082,0,0,0,3.126,1.875,44.621,44.621,0,0,0,6.785,1.074q4.452.446,11.6,1.335a59.981,59.981,0,0,1,11.513,2.409,27.166,27.166,0,0,1,9.194,5,21.45,21.45,0,0,1,6.069,8.745,36.962,36.962,0,0,1,2.142,13.485,36.6,36.6,0,0,1-2.318,13.3,25.158,25.158,0,0,1-7.228,10.178,34.652,34.652,0,0,1-12.411,6.518,60.768,60.768,0,0,1-17.855,2.318" transform="translate(1143.298 215.559)" fill="#1750ac"/>
        <path id="Path_10" data-name="Path 10" d="M290.678,142.148q-25,0-37.937-12.672T239.8,92.34a62.2,62.2,0,0,1,3.392-21.423,40.592,40.592,0,0,1,24.634-25.089,54.867,54.867,0,0,1,19.463-3.3q11.789,0,20,3.125a31.622,31.622,0,0,1,13.3,9.194,37.787,37.787,0,0,1,7.4,14.905A80.88,80.88,0,0,1,330.315,90.2v11.6H273.363a35.465,35.465,0,0,0,1.511,8.927,11.24,11.24,0,0,0,3.484,5.262,12.68,12.68,0,0,0,5.893,2.506,50.994,50.994,0,0,0,8.569.619,81.224,81.224,0,0,0,15.445-1.335q6.873-1.338,13.479-3.3l4.109,20.349a102.137,102.137,0,0,1-14.377,4.819,79.259,79.259,0,0,1-20.8,2.5m10.536-58.735V81.088a45.041,45.041,0,0,0-.807-9.37,13.357,13.357,0,0,0-2.494-5.711,8.273,8.273,0,0,0-4.2-2.767,21.437,21.437,0,0,0-5.887-.716,24.227,24.227,0,0,0-6.251.716,8.288,8.288,0,0,0-4.461,2.943,16.1,16.1,0,0,0-2.773,6.342,54.428,54.428,0,0,0-1.159,10.888Z" transform="translate(1215.515 215.559)" fill="#1750ac"/>
        <path id="Path_11" data-name="Path 11" d="M300.97,160.756q-17.133,0-25.083-8.745t-7.944-26.958V83.274H255.8V71.13l31.061-32.311h13.212v24.64h20.355V83.274H300.078v47.131q0,5.362,1.608,7.319t6.961,1.966h12.5l1.79,17.5a60.743,60.743,0,0,1-8.393,2.409,64.4,64.4,0,0,1-13.57,1.159" transform="translate(1296.664 196.769)" fill="#1750ac"/>
        <path id="Path_12" data-name="Path 12" d="M312.78,160.756q-17.133,0-25.083-8.745t-7.944-26.958V83.274H267.615V71.13l31.061-32.311h13.212v24.64h20.355V83.274H311.888v47.131q0,5.362,1.608,7.319t6.961,1.966h12.5l1.79,17.5a60.742,60.742,0,0,1-8.393,2.409,64.4,64.4,0,0,1-13.57,1.159" transform="translate(1356.528 196.769)" fill="#1750ac"/>
        <path id="Path_13" data-name="Path 13" d="M318.347,142.148q-14.283,0-22.941-1.693a70,70,0,0,1-14.371-4.2l3.927-19.633q4.825,1.429,11.6,3.034a67.038,67.038,0,0,0,15.355,1.6q10,0,13.928-1.244t3.927-5.717a7.789,7.789,0,0,0-.716-3.66,5.127,5.127,0,0,0-3.034-2.142,39.047,39.047,0,0,0-6.694-1.432q-4.379-.619-11.695-1.517a56.733,56.733,0,0,1-11.786-2.761A22.328,22.328,0,0,1,281.66,88.322,40.5,40.5,0,0,1,279.785,75.2a35.378,35.378,0,0,1,2.859-14.82,25.831,25.831,0,0,1,8.12-10.178,35.552,35.552,0,0,1,12.678-5.8,67.318,67.318,0,0,1,16.514-1.875A95.419,95.419,0,0,1,340.22,44.31a70.763,70.763,0,0,1,13.121,4.109L348.522,68.95q-5.18-1.247-11.07-2.409a69.418,69.418,0,0,0-13.388-1.165q-9.113,0-13.127,1.074t-4.012,5.893a6.614,6.614,0,0,0,.8,3.569,5.081,5.081,0,0,0,3.125,1.875,44.626,44.626,0,0,0,6.785,1.074q4.451.446,11.6,1.335a59.983,59.983,0,0,1,11.513,2.409,27.166,27.166,0,0,1,9.194,5,21.449,21.449,0,0,1,6.069,8.745,36.962,36.962,0,0,1,2.142,13.485,36.591,36.591,0,0,1-2.318,13.3,25.156,25.156,0,0,1-7.228,10.178A34.651,34.651,0,0,1,336.2,139.83a60.767,60.767,0,0,1-17.855,2.318" transform="translate(1418.218 215.559)" fill="#1750ac"/>
        <path id="Path_14" data-name="Path 14" d="M89.527,64.651h55.167a93.9,93.9,0,0,1,16.872,1.426,39.575,39.575,0,0,1,13.479,4.91,24.288,24.288,0,0,1,8.927,9.559q3.214,6.063,3.21,15.172A29.266,29.266,0,0,1,185.4,106.7a20.875,20.875,0,0,1-4.734,7.234,21.109,21.109,0,0,1-6.961,4.461,59.59,59.59,0,0,1-8.66,2.676,59.734,59.734,0,0,1,9.735,2.591,27.8,27.8,0,0,1,8.478,4.819,21.967,21.967,0,0,1,5.984,8.211,31.471,31.471,0,0,1,2.227,12.587q0,16.25-10.621,23.924t-33.3,7.677H89.527Zm51.416,48.206q6.245,0,9.012-2.306t2.774-8.333V99.39q0-6.026-2.858-8.333t-9.644-2.306H124.163v24.106Zm1.25,45.347q7.319,0,10.536-2.409t3.21-9.194v-2.5q0-6.964-2.943-9.644T142.9,131.78H124.163V158.2Z" transform="translate(453.808 327.71)" fill="#1750ac"/>
        <path id="Path_15" data-name="Path 15" d="M139.085,167.421a50.322,50.322,0,0,1-11.695-1.341,28.233,28.233,0,0,1-10-4.461,22.313,22.313,0,0,1-6.967-8.217,28.027,28.027,0,0,1-2.585-12.763,35.852,35.852,0,0,1,2.227-13.388,22.194,22.194,0,0,1,7.228-9.37,37.894,37.894,0,0,1,12.951-6.069,120.853,120.853,0,0,1,19.19-3.484l11.962-1.25v-3.034a25.162,25.162,0,0,0-.54-5.8,6.445,6.445,0,0,0-1.96-3.484,8,8,0,0,0-3.927-1.693,36.487,36.487,0,0,0-6.251-.449,65.023,65.023,0,0,0-6.779.358q-3.4.355-7.052,1.068t-7.859,1.875q-4.2,1.165-9.37,2.591l-5.177-21.423a117.976,117.976,0,0,1,18.474-6.609A85.291,85.291,0,0,1,153.189,67.8a63.319,63.319,0,0,1,18.3,2.318,27.806,27.806,0,0,1,12.5,7.592,31.478,31.478,0,0,1,7.143,13.746,83.018,83.018,0,0,1,2.233,20.8v30.709c0,2.5.382,4.1,1.159,4.819a5.561,5.561,0,0,0,3.836,1.074h4.109l1.074,13.388a25.908,25.908,0,0,1-6.7,3.393,34.194,34.194,0,0,1-11.513,1.6,41.6,41.6,0,0,1-13.746-1.96L163.9,152.6l-5.717,10.712a32.437,32.437,0,0,1-7.944,3.041,48.353,48.353,0,0,1-11.155,1.068m9.638-19.105a21.251,21.251,0,0,0,7.944-1.159,18.924,18.924,0,0,0,4.734-2.767V123.858l-10,1.426a55.673,55.673,0,0,0-6.609,1.25,12.163,12.163,0,0,0-4.376,2.051,7.351,7.351,0,0,0-2.409,3.393,16.244,16.244,0,0,0-.71,5.268v.534q0,6.436,2.676,8.484t8.745,2.051" transform="translate(546.646 343.667)" fill="#1750ac"/>
        <path id="Path_16" data-name="Path 16" d="M158.543,160.455l-35.7-92.3H156.4l13.928,43.029,4.643,33.209,4.637-33.209,13.928-43.029h30.533l-46.6,127.478H145.155Z" transform="translate(622.666 345.455)" fill="#1750ac"/>
        <path id="Path_17" data-name="Path 17" d="M178.545,167.421q-14.283,0-22.941-1.693a70,70,0,0,1-14.371-4.2l3.927-19.633q4.825,1.429,11.6,3.034a67.037,67.037,0,0,0,15.354,1.6q10,0,13.928-1.244t3.927-5.717a7.808,7.808,0,0,0-.716-3.66,5.127,5.127,0,0,0-3.034-2.142,39.05,39.05,0,0,0-6.694-1.432q-4.379-.619-11.695-1.517a56.728,56.728,0,0,1-11.786-2.761A22.327,22.327,0,0,1,141.858,113.6a40.5,40.5,0,0,1-1.875-13.121,35.38,35.38,0,0,1,2.858-14.82,25.83,25.83,0,0,1,8.12-10.178,35.552,35.552,0,0,1,12.678-5.8A67.317,67.317,0,0,1,180.153,67.8a95.42,95.42,0,0,1,20.264,1.784,70.762,70.762,0,0,1,13.121,4.109L208.72,94.223q-5.18-1.247-11.07-2.409a69.425,69.425,0,0,0-13.388-1.165q-9.113,0-13.127,1.074t-4.012,5.893a6.614,6.614,0,0,0,.8,3.569,5.083,5.083,0,0,0,3.126,1.875,44.625,44.625,0,0,0,6.785,1.074q4.452.446,11.6,1.335a59.986,59.986,0,0,1,11.513,2.409,27.166,27.166,0,0,1,9.194,5,21.448,21.448,0,0,1,6.069,8.745,36.962,36.962,0,0,1,2.142,13.485,36.6,36.6,0,0,1-2.318,13.3,25.158,25.158,0,0,1-7.228,10.178A34.652,34.652,0,0,1,196.4,165.1a60.77,60.77,0,0,1-17.855,2.318" transform="translate(709.568 343.667)" fill="#1750ac"/>
        <path id="Path_18" data-name="Path 18" d="M28.456,108.714A251.836,251.836,0,0,1,2.274,69.369c-.486-.9-.831-.8-1.444-.941v86.938c10.851-7.835,24.689-17.752,42.216-30.3-5.055-5.213-9.947-10.633-14.59-16.35" transform="translate(4.207 346.855)" fill="#86c052"/>
        <path id="Path_19" data-name="Path 19" d="M4.253,103.4H71.3A239,239,0,0,1,39.8,79.973C25.858,89.21,14.109,96.942,4.253,103.4" transform="translate(21.558 405.376)" fill="#86c052"/>
        <path id="Path_20" data-name="Path 20" d="M108.394,190.074a291.463,291.463,0,0,1-50.1,37.033H192.54V55.568a299.892,299.892,0,0,1-84.146,134.506" transform="translate(295.495 281.669)" fill="#86c052"/>
        <path id="Path_21" data-name="Path 21" d="M168.688,0H4.589L84.481,37.427A269.706,269.706,0,0,1,168.688,0" transform="translate(23.261 -0.003)" fill="#86c052"/>
        <path id="Path_22" data-name="Path 22" d="M64.928,59.351c5.96-5.468,12.114-10.584,18.371-15.47L1.289,1.277V129.059l3.411.061c14.79-25.429,37.658-49.055,60.228-69.769" transform="translate(6.534 6.47)" fill="#86c052"/>
        <path id="Path_23" data-name="Path 23" d="M140.91,0H51.878A237.881,237.881,0,0,1,140.91,43.812Z" transform="translate(262.967 -0.003)" fill="#86c052"/>
        <path id="Path_24" data-name="Path 24" d="M228.567,48.645,191.7,61.8,2.638,129.229a231.185,231.185,0,0,0,36.741,64.125,222.819,222.819,0,0,0,15.367,17.042c39.794-28.469,87.787-62.717,136.952-97.747q11.935-8.5,23.93-17.048,8.73-6.218,17.054-12.144a212.192,212.192,0,0,1-4.115-34.812" transform="translate(13.372 246.576)" fill="#00a3cc"/>
        <path id="Path_25" data-name="Path 25" d="M183.9,58.808q-25.745,17.306-48.406,32.511c-51.046,34.247-90.8,60.8-121.768,81.385a212.613,212.613,0,0,0,68.245,37.98Q87.38,212.5,92.9,214.009l2.822-3.326,39.776-46.913,62.7-73.956a185.165,185.165,0,0,1-14.3-31.006" transform="translate(69.582 298.092)" fill="#00a3cc"/>
        <path id="Path_26" data-name="Path 26" d="M205.075,44.12,5.042,65.8l-4.327.467a260.928,260.928,0,0,0,4.327,70.527q2.212,10.979,5.4,21.721L205.075,81.893,242.69,67.084a226.582,226.582,0,0,1,4.224-27.5Z" transform="translate(0.001 200.657)" fill="#00a3cc"/>
        <path id="Path_27" data-name="Path 27" d="M151.6,40.986,111,3.225A238.589,238.589,0,0,0,22.243,33.849L92.327,66.682l100.72,47.186A200.5,200.5,0,0,1,211.88,97.033Z" transform="translate(112.749 16.344)" fill="#00a3cc"/>
        <path id="Path_28" data-name="Path 28" d="M212.635,121.185a148.19,148.19,0,0,1-40.292-16.514,157.073,157.073,0,0,1-42.586-37.306L52.748,150.6,37.3,167.3l-7.246,7.835a220.372,220.372,0,0,0,22.7,2.828l.1.012c6.19.443,12.369.552,18.529.5a230.267,230.267,0,0,0,57.789-7.932c3.678-1,7.337-2.063,10.973-3.241A241.315,241.315,0,0,0,175.6,152.634c13.7-8.9,31.807-18.322,44.055-30.132-.686-.158-6.336-1.147-7.016-1.317" transform="translate(152.322 341.467)" fill="#00a3cc"/>
        <path id="Path_29" data-name="Path 29" d="M202.836,53.227,31.454,25.534A277.6,277.6,0,0,0,2.8,104.922Q1.437,111.886.442,118.9l2.361-.334L202.836,90.32l49.65-7.01c2.452-6.967,5.225-13.88,8.4-20.7Z" transform="translate(2.24 129.428)" fill="#00a3cc"/>
        <path id="Path_30" data-name="Path 30" d="M169.041,55.6,79.063,10.389a270.413,270.413,0,0,0-26.072,21.1A273.688,273.688,0,0,0,7.109,86.391l161.932,20.1,71.122,8.83q5.79-9.331,12.29-17.812Z" transform="translate(36.035 52.658)" fill="#00a3cc"/>
        <path id="Path_31" data-name="Path 31" d="M119.868,15.068a217.422,217.422,0,0,0-56.241-11.6c-5.456-.382-10.918-.583-16.344-.583-2.185,0-4.358.1-6.536.164l46.1,39.642,50.014,43A177.34,177.34,0,0,1,185.7,64.949c.655-.17,9.747-2.652,10.408-2.81-6.761-7.428-15.379-13.352-23.293-19.676a212.34,212.34,0,0,0-50.008-26.248c-1.074-.376-2.063-.753-2.943-1.147" transform="translate(206.545 14.636)" fill="#00a3cc"/>
        <path id="Path_32" data-name="Path 32" d="M196.569,64.814c-1.681,0-3.386,1-3.386,2.925V92.986l.577,8.618L167.639,66.677a4.028,4.028,0,0,0-4.5-1.766,3.52,3.52,0,0,0-2.422,3.611v40.8a3.339,3.339,0,0,0,6.676,0V84.149l-.449-7.726,25.326,33.932a4.437,4.437,0,0,0,4.91,1.748,3.474,3.474,0,0,0,2.676-3.5V67.739a3,3,0,0,0-3.289-2.925" transform="translate(814.683 328.215)" fill="#00a3cc"/>
        <path id="Path_33" data-name="Path 33" d="M196.58,66.345a3.285,3.285,0,0,0-5.747.012l-21.514,42.386a2.857,2.857,0,0,0,1.566,3.86,3.729,3.729,0,0,0,1.6.364,2.855,2.855,0,0,0,2.67-1.608l5.59-10.906h25.993l5.377,10.681a3.119,3.119,0,0,0,2.78,1.736h.158a3.6,3.6,0,0,0,3.083-1.584,2.623,2.623,0,0,0-.121-2.78Zm7.319,28.36h-20.38L193.745,74.32Z" transform="translate(856.852 327.745)" fill="#00a3cc"/>
        <path id="Path_34" data-name="Path 34" d="M217.192,64.845H180.311a3.055,3.055,0,0,0-2.349.971,3.115,3.115,0,0,0-.789,2.118,3.015,3.015,0,0,0,3.138,3.089h15.172v38.022a3.165,3.165,0,0,0,3.2,3.271,3.278,3.278,0,0,0,3.338-3.271c0-6.4-.018-12.86-.036-19.324-.018-6.251-.036-12.5-.036-18.7h15.245a3.093,3.093,0,1,0,0-6.178" transform="translate(898.082 328.693)" fill="#00a3cc"/>
        <path id="Path_35" data-name="Path 35" d="M186.082,67.8v42.574a3.1,3.1,0,0,0,3.259,3.144,3.151,3.151,0,0,0,3.344-3.144V67.8c.006-4.273-6.6-4.309-6.6,0" transform="translate(943.241 327.369)" fill="#00a3cc"/>
        <path id="Path_36" data-name="Path 36" d="M216.462,64.955a30.367,30.367,0,0,0-7.72.006c-11.422,1.79-19.4,11.3-19.4,23.117,0,14.632,9.741,24.846,23.693,24.846,13.346,0,23.414-10.681,23.414-24.846a23.377,23.377,0,0,0-19.991-23.123m-3.423,41.791c-10.068,0-17.1-7.586-17.1-18.456,0-9.207,5.383-16.01,13.7-17.309a20.68,20.68,0,0,1,2.962-.206,23.533,23.533,0,0,1,3.041.2c8.412,1.372,14.28,8.49,14.28,17.315,0,10.87-6.943,18.456-16.884,18.456" transform="translate(959.786 328.019)" fill="#00a3cc"/>
        <path id="Path_37" data-name="Path 37" d="M235.393,64.814c-1.681,0-3.386,1-3.386,2.925V92.986l.576,8.618L206.463,66.677a4.033,4.033,0,0,0-4.5-1.766,3.522,3.522,0,0,0-2.415,3.611v40.8a3.338,3.338,0,0,0,6.676,0V84.149l-.449-7.726L231.1,110.355a4.437,4.437,0,0,0,4.91,1.748,3.474,3.474,0,0,0,2.676-3.5V67.739a3,3,0,0,0-3.289-2.925" transform="translate(1011.48 328.215)" fill="#00a3cc"/>
        <path id="Path_38" data-name="Path 38" d="M235.41,66.345a3.29,3.29,0,0,0-5.753.012l-21.514,42.386a2.857,2.857,0,0,0,1.566,3.86,3.729,3.729,0,0,0,1.6.364,2.855,2.855,0,0,0,2.67-1.608l5.59-10.906h25.993l5.377,10.681a3.119,3.119,0,0,0,2.78,1.736h.158a3.6,3.6,0,0,0,3.083-1.584,2.623,2.623,0,0,0-.121-2.78Zm7.313,28.36h-20.38L232.569,74.32Z" transform="translate(1053.649 327.745)" fill="#00a3cc"/>
        <path id="Path_39" data-name="Path 39" d="M250.534,106.01H224.54V67.842c0-4.127-6.536-4.133-6.536,0V108.7c0,2.136,1.159,3.271,3.338,3.271h29.192a3.455,3.455,0,0,0,2.482-.916,2.854,2.854,0,0,0,.874-2.07,3.072,3.072,0,0,0-3.356-2.98" transform="translate(1105.052 328.185)" fill="#00a3cc"/>
        <path id="Path_40" data-name="Path 40" d="M263.964,105.435H236.472V91.252h26.139a2.756,2.756,0,0,0,2.822-2.871,2.834,2.834,0,0,0-2.822-2.95H236.472V70.678h27.492a2.983,2.983,0,0,0,2.221-4.922,2.761,2.761,0,0,0-2.154-.9H233.989a3.723,3.723,0,0,0-3.909,3.69v39.084a3.757,3.757,0,0,0,3.909,3.769h29.975a3.019,3.019,0,0,0,2.282-.892,2.84,2.84,0,0,0,.752-1.972,3.005,3.005,0,0,0-3.034-3.1" transform="translate(1166.27 328.759)" fill="#00a3cc"/>
        <path id="Path_41" data-name="Path 41" d="M261.254,85.922l-1.068-.091c-9.207-.716-14.8-1.535-14.8-6.852,0-5.656,8.217-7.762,13.394-7.762,5.456,0,12.357,1.032,14.3,5.96.728,1.645,2.761,1.972,4.315,1.347a2.681,2.681,0,0,0,1.7-3.532c-3.144-8.527-12.824-10.311-20.386-10.311-14.778,0-20.143,8.509-20.143,14.232,0,11.276,11.13,12.162,20.944,12.951l.419.03c7.677.631,14.311,1.165,14.311,6.664,0,8.175-13.3,8.412-14.82,8.412-3.823,0-12.909-.655-14.833-6.718a2.668,2.668,0,0,0-1.875-2.015,4.091,4.091,0,0,0-3.884.874,2.687,2.687,0,0,0-.734,2.755c2.33,8.484,12.945,11.495,21.326,11.495,9.947,0,21.563-3.9,21.563-14.869,0-10.869-10.487-11.774-19.736-12.569" transform="translate(1206.353 327.862)" fill="#00a3cc"/>
        <path id="Path_42" data-name="Path 42" d="M286.03,64.845H249.143a3.066,3.066,0,0,0-2.349.971,3.114,3.114,0,0,0-.789,2.118,3.015,3.015,0,0,0,3.138,3.089h15.172v38.022a3.165,3.165,0,0,0,3.2,3.271,3.283,3.283,0,0,0,3.344-3.271c0-6.4-.024-12.86-.043-19.324-.018-6.251-.036-12.5-.036-18.7H286.03a3.093,3.093,0,1,0,0-6.178" transform="translate(1246.988 328.693)" fill="#00a3cc"/>
        <path id="Path_43" data-name="Path 43" d="M291.637,67.947V91.295c0,10.172-7.793,14.8-15.033,14.8s-15.027-4.631-15.027-14.8V67.947c0-3.963-6.6-4-6.6-.073v23.42c0,13.922,10.882,21.211,21.636,21.211s21.63-7.289,21.63-21.211V67.875c0-4.206-6.6-4.181-6.6.073" transform="translate(1292.452 328.152)" fill="#00a3cc"/>
        <path id="Path_44" data-name="Path 44" d="M291.6,66.345a3.285,3.285,0,0,0-5.747.012l-21.515,42.386a2.857,2.857,0,0,0,1.566,3.86,3.73,3.73,0,0,0,1.6.364,2.855,2.855,0,0,0,2.67-1.608l5.589-10.906h25.993l5.377,10.681a3.119,3.119,0,0,0,2.78,1.736h.158a3.6,3.6,0,0,0,3.083-1.584,2.623,2.623,0,0,0-.121-2.78Zm7.319,28.36H278.536L288.762,74.32Z" transform="translate(1338.489 327.745)" fill="#00a3cc"/>
        <path id="Path_45" data-name="Path 45" d="M313.549,80.788c0-9.686-7.544-15.943-19.214-15.943H277.463a3.059,3.059,0,0,0-3.265,3.126v40.862c-.006,4,6.451,3.969,6.457-.067V95.584h12.909l14.2,15.4a3.305,3.305,0,0,0,2.391,1.062,3.339,3.339,0,0,0,.807-.1,3.006,3.006,0,0,0,1.28-5.25L301.478,95.074c7.908-1.711,12.071-6.633,12.071-14.286m-6.53.012a7.64,7.64,0,0,1-2.13,5.693c-2.13,2.185-5.753,3.344-10.481,3.344H280.655V70.884h13.752c7.465,0,12.538,3.981,12.611,9.917" transform="translate(1389.897 328.693)" fill="#00a3cc"/>
        <path id="Path_46" data-name="Path 46" d="M324.3,65.273a3.269,3.269,0,0,0-4.54.91L303.97,87.564,288.4,66.281a3.238,3.238,0,0,0-3.089-1.493,3.463,3.463,0,0,0-2.865,1.93,2.83,2.83,0,0,0,.443,2.931l17.885,23.687v15.731a3.09,3.09,0,0,0,3.265,3.265,3.2,3.2,0,0,0,3.265-3.265V93.33l17.776-23.863a2.906,2.906,0,0,0-.783-4.194" transform="translate(1430.55 328.107)" fill="#00a3cc"/>
        <path id="Path_47" data-name="Path 47" d="M179.387,76.419H163.941a3.134,3.134,0,0,0-3.271,3.126v41.008a3.2,3.2,0,0,0,6.391-.067V109.653h12.114c13.959,0,18.929-8.381,18.929-16.222,0-8.193-5.857-17.011-18.717-17.011m-.212,27.341H167.061V82.312h12.4c7.92,0,12.259,5.735,12.32,11.13a9.321,9.321,0,0,1-2.6,6.828c-2.227,2.288-5.681,3.49-10,3.49" transform="translate(814.429 387.361)" fill="#00a3cc"/>
        <path id="Path_48" data-name="Path 48" d="M195.152,77.919a3.29,3.29,0,0,0-5.753.012l-21.514,42.386a2.857,2.857,0,0,0,1.566,3.86,3.731,3.731,0,0,0,1.6.364,2.855,2.855,0,0,0,2.67-1.608l5.59-10.906h25.993l5.377,10.681a3.119,3.119,0,0,0,2.78,1.736h.158a3.6,3.6,0,0,0,3.083-1.584,2.623,2.623,0,0,0-.121-2.78Zm7.313,28.36h-20.38l10.226-20.386Z" transform="translate(849.583 386.414)" fill="#00a3cc"/>
        <path id="Path_49" data-name="Path 49" d="M217.1,92.362c0-9.686-7.544-15.943-19.214-15.943H181.012a3.059,3.059,0,0,0-3.265,3.126v40.862c-.006,4,6.457,3.969,6.457-.067V107.158h12.909l14.2,15.4a3.261,3.261,0,0,0,3.2.965,3.006,3.006,0,0,0,1.281-5.25l-10.766-11.622c7.908-1.711,12.071-6.633,12.071-14.286m-6.53.012a7.641,7.641,0,0,1-2.13,5.693c-2.13,2.185-5.753,3.344-10.481,3.344H184.2V82.458h13.752c7.465,0,12.538,3.981,12.611,9.917" transform="translate(900.992 387.361)" fill="#00a3cc"/>
        <path id="Path_50" data-name="Path 50" d="M225.756,76.419H188.875a3.055,3.055,0,0,0-2.349.971,3.114,3.114,0,0,0-.789,2.118,3.015,3.015,0,0,0,3.138,3.089h15.172v38.022a3.165,3.165,0,0,0,3.2,3.271,3.277,3.277,0,0,0,3.338-3.271c0-6.4-.018-12.86-.036-19.324-.018-6.251-.036-12.5-.036-18.7h15.245a3.093,3.093,0,1,0,0-6.178" transform="translate(941.493 387.361)" fill="#00a3cc"/>
        <path id="Path_51" data-name="Path 51" d="M230.519,76.388c-1.681,0-3.386,1-3.386,2.925V104.56l.577,8.618L201.589,78.251a4.028,4.028,0,0,0-4.5-1.766A3.52,3.52,0,0,0,194.67,80.1v40.8a3.338,3.338,0,0,0,6.676,0V95.723L200.9,88l25.326,33.932a4.44,4.44,0,0,0,4.91,1.748,3.474,3.474,0,0,0,2.676-3.5V79.313a3,3,0,0,0-3.289-2.925" transform="translate(986.773 386.883)" fill="#00a3cc"/>
        <path id="Path_52" data-name="Path 52" d="M237.777,117.009H210.285V102.826h26.139a2.756,2.756,0,0,0,2.822-2.871,2.834,2.834,0,0,0-2.822-2.95H210.285V82.252h27.492A2.988,2.988,0,0,0,240,77.33a2.772,2.772,0,0,0-2.154-.9H207.8a3.723,3.723,0,0,0-3.908,3.69v39.084a3.757,3.757,0,0,0,3.908,3.769h29.975a3.019,3.019,0,0,0,2.282-.892,2.84,2.84,0,0,0,.753-1.972,3.005,3.005,0,0,0-3.034-3.1" transform="translate(1033.53 387.427)" fill="#00a3cc"/>
        <path id="Path_53" data-name="Path 53" d="M251.8,92.362c0-9.686-7.544-15.943-19.214-15.943H215.716a3.059,3.059,0,0,0-3.265,3.126v40.862c0,4,6.457,3.969,6.457-.067V107.158h12.909l14.2,15.4a3.261,3.261,0,0,0,3.2.965,3.006,3.006,0,0,0,1.281-5.25l-10.766-11.622c7.908-1.711,12.071-6.633,12.071-14.286m-6.53.012a7.64,7.64,0,0,1-2.13,5.693c-2.13,2.185-5.753,3.344-10.481,3.344H218.908V82.458h13.752c7.465,0,12.538,3.981,12.611,9.917" transform="translate(1076.905 387.361)" fill="#00a3cc"/>
        <path id="Path_54" data-name="Path 54" d="M244.327,97.5l-1.068-.091c-9.207-.716-14.8-1.535-14.8-6.852,0-5.656,8.217-7.762,13.394-7.762,5.456,0,12.356,1.032,14.3,5.96.728,1.645,2.761,1.972,4.315,1.347a2.681,2.681,0,0,0,1.7-3.532c-3.144-8.527-12.824-10.311-20.386-10.311-14.778,0-20.143,8.509-20.143,14.232,0,11.276,11.13,12.162,20.944,12.951l.419.03c7.683.631,14.311,1.165,14.311,6.664,0,8.175-13.3,8.412-14.82,8.412-3.823,0-12.909-.655-14.839-6.718a2.669,2.669,0,0,0-1.869-2.015,4.107,4.107,0,0,0-3.878.874,2.678,2.678,0,0,0-.74,2.755c2.331,8.484,12.945,11.495,21.326,11.495,9.947,0,21.563-3.9,21.563-14.869,0-10.869-10.487-11.774-19.736-12.569" transform="translate(1120.551 386.53)" fill="#00a3cc"/>
        <path id="Path_55" data-name="Path 55" d="M261.653,79.463v18.8H236.716v-18.8a3.147,3.147,0,0,0-3.253-3.168,3.182,3.182,0,0,0-2.148.783,3.085,3.085,0,0,0-.989,2.385v41.506a3.212,3.212,0,0,0,3.314,3.247,3.1,3.1,0,0,0,2.124-.8,3.225,3.225,0,0,0,.953-2.446V104.018h24.937v16.951a3.141,3.141,0,0,0,3.192,3.3,3.181,3.181,0,0,0,3.271-3.3V79.463c-.006-4.194-6.47-4.206-6.464,0" transform="translate(1167.507 386.733)" fill="#00a3cc"/>
        <path id="Path_56" data-name="Path 56" d="M239.339,79.376V121.95a3.1,3.1,0,0,0,3.259,3.144,3.151,3.151,0,0,0,3.344-3.144V79.376c.006-4.273-6.6-4.309-6.6,0" transform="translate(1213.199 386.037)" fill="#00a3cc"/>
        <path id="Path_57" data-name="Path 57" d="M261.775,76.419H246.329a3.134,3.134,0,0,0-3.271,3.126v41.008a3.2,3.2,0,0,0,6.391-.067V109.653h12.114c13.959,0,18.929-8.381,18.929-16.222,0-8.193-5.857-17.011-18.717-17.011m-.212,27.341H249.449V82.312h12.4c7.92,0,12.259,5.735,12.32,11.13a9.321,9.321,0,0,1-2.6,6.828c-2.227,2.288-5.681,3.49-10,3.49" transform="translate(1232.05 387.361)" fill="#00a3cc"/>
      </g>
    </g>
  </g>
</svg>
